<svg width="48" height="48" viewBox="0 0 48 48" fill="none" xmlns="http://www.w3.org/2000/svg">
<path d="M10 44.0001H38C39.0609 44.0001 40.0783 43.5787 40.8284 42.8285C41.5786 42.0784 42 41.061 42 40.0001V22.0001C42.0015 21.7369 41.9511 21.476 41.8515 21.2323C41.752 20.9886 41.6054 20.767 41.42 20.5801L25.42 4.58012C25.0453 4.20762 24.5384 3.99854 24.01 3.99854C23.4816 3.99854 22.9747 4.20762 22.6 4.58012L6.6 20.5801C6.41102 20.7653 6.26068 20.9862 6.15769 21.23C6.0547 21.4737 6.0011 21.7355 6 22.0001V40.0001C6 41.061 6.42143 42.0784 7.17157 42.8285C7.92172 43.5787 8.93913 44.0001 10 44.0001ZM20 40.0001V30.0001H28V40.0001H20ZM10 22.8201L24 8.82012L38 22.8201V40.0001H32V30.0001C32 28.9393 31.5786 27.9218 30.8284 27.1717C30.0783 26.4215 29.0609 26.0001 28 26.0001H20C18.9391 26.0001 17.9217 26.4215 17.1716 27.1717C16.4214 27.9218 16 28.9393 16 30.0001V40.0001H10V22.8201Z"/>
</svg>
