<svg width="24" height="30" viewBox="0 0 24 30" fill="none" xmlns="http://www.w3.org/2000/svg">
<path d="M0 25.0801V22.9201H3V11.9761C3 9.9601 3.61875 8.1541 4.85625 6.5581C6.09375 4.9621 7.725 3.9601 9.75 3.5521V2.7601C9.75 2.1601 9.96875 1.6501 10.4062 1.2301C10.8438 0.810098 11.375 0.600098 12 0.600098C12.625 0.600098 13.1562 0.810098 13.5938 1.2301C14.0312 1.6501 14.25 2.1601 14.25 2.7601V3.5521C16.275 3.9601 17.9062 4.9621 19.1437 6.5581C20.3812 8.1541 21 9.9601 21 11.9761V22.9201H24V25.0801H0ZM12 29.4001C11.175 29.4001 10.4688 29.1181 9.88125 28.5541C9.29375 27.9901 9 27.3121 9 26.5201H15C15 27.3121 14.7063 27.9901 14.1188 28.5541C13.5313 29.1181 12.825 29.4001 12 29.4001ZM5.25 22.9201H18.75V11.9761C18.75 10.1761 18.0938 8.6461 16.7812 7.3861C15.4688 6.1261 13.875 5.4961 12 5.4961C10.125 5.4961 8.53125 6.1261 7.21875 7.3861C5.90625 8.6461 5.25 10.1761 5.25 11.9761V22.9201Z" fill="black"/>
</svg>
