<svg width="24" height="27" viewBox="0 0 24 27" fill="none" xmlns="http://www.w3.org/2000/svg">
<path d="M10.6591 27H0.981534V0.818181H10.6463C13.3139 0.818181 15.6108 1.34233 17.5369 2.39062C19.4716 3.4304 20.9631 4.9304 22.0114 6.89062C23.0597 8.84233 23.5838 11.1776 23.5838 13.8963C23.5838 16.6236 23.0597 18.9673 22.0114 20.9276C20.9716 22.8878 19.4844 24.392 17.5497 25.4403C15.6151 26.4801 13.3182 27 10.6591 27ZM7.30966 21.6051H10.4162C11.8821 21.6051 13.1222 21.358 14.1364 20.8636C15.1591 20.3608 15.9304 19.5469 16.4503 18.4219C16.9787 17.2884 17.2429 15.7798 17.2429 13.8963C17.2429 12.0128 16.9787 10.5128 16.4503 9.39631C15.9219 8.27131 15.142 7.46165 14.1108 6.96733C13.0881 6.46449 11.8267 6.21307 10.3267 6.21307H7.30966V21.6051Z" fill="white"/>
</svg>
