<svg width="225" height="225" viewBox="0 0 225 225" fill="none" xmlns="http://www.w3.org/2000/svg">
<g clip-path="url(#clip0_876_1728)">
<rect width="225" height="225" rx="112.5" fill="#E2F6CA"/>
<path d="M225 0H0V225H225V0Z" fill="#E2F6CA"/>
<path d="M218.25 148.118V225.017H103.823C106.954 218.229 111.065 211.82 117.108 207.548C124.408 202.384 135.147 201.213 142.053 206.89C143.326 199.78 144.657 192.479 148.534 186.378C152.397 180.277 159.463 175.624 166.589 176.795C174.109 178.023 179.215 184.988 182.741 191.747C184.672 185.222 187.072 178.843 189.91 172.668C192.28 167.533 195.03 162.456 198.689 158.184H198.703C199.801 156.896 201 155.682 202.288 154.556C206.707 150.708 212.471 148.133 218.25 148.118Z" fill="#D2DE24"/>
<path d="M134.295 225.009C134.273 225.014 134.25 225.017 134.226 225.017C134.059 225.019 133.924 224.885 133.923 224.718C133.809 209.623 135.18 194.45 137.996 179.62C138.027 179.455 138.187 179.35 138.348 179.38C138.512 179.411 138.619 179.569 138.588 179.733C135.779 194.524 134.412 209.658 134.525 224.714C134.527 224.856 134.428 224.977 134.295 225.009Z" fill="#003F46"/>
<path d="M134.805 205.247C134.109 204.524 133.083 204.254 132.126 203.95C129.955 203.263 127.845 202.225 126.26 200.591C124.674 198.957 123.67 196.662 123.953 194.403C126.859 194.202 129.862 195.107 131.909 197.178C133.956 199.249 135.039 202.344 134.805 205.247Z" fill="#003F46"/>
<path d="M135.371 199.349C136.278 196.706 138.631 194.613 141.361 194.02C142.106 193.858 142.87 193.801 143.631 193.782C144.272 193.765 144.97 193.795 145.46 194.207C144.977 195.104 144.987 196.064 144.652 197.027C144.07 198.691 142.351 199.745 140.613 200.04C138.875 200.335 137.102 199.677 135.371 199.349Z" fill="#003F46"/>
<path d="M155.533 187.78C154.971 189.367 153.392 190.469 151.138 191.051C150.835 191.13 150.511 191.04 150.281 190.827L141.761 182.93L146.005 190.09C146.385 190.732 145.899 191.548 145.154 191.502C142.235 191.321 138.94 190.654 135.572 189.466C134.527 189.1 133.523 188.7 132.56 188.273C132.07 188.056 131.874 187.465 132.12 186.99L135.286 180.894L128.543 185.506C128.231 185.72 127.815 185.727 127.499 185.518C124.507 183.534 122.348 181.314 121.397 179.219C121.117 178.6 121.595 177.901 122.274 177.914L135.829 178.159L125.515 174.634C124.691 174.353 124.662 173.19 125.474 172.878C128.443 171.734 132.744 171.652 137.953 173.027C138.289 173.116 138.552 173.39 138.629 173.729L139.708 178.495L141.498 173.953C141.693 173.458 142.258 173.221 142.744 173.44C145.282 174.584 148.808 176.542 151.147 178.083C151.814 178.522 151.646 179.544 150.876 179.757L145.244 181.317L153.83 182.526C154.089 182.563 154.329 182.706 154.476 182.924C155.628 184.638 156.045 186.324 155.533 187.78Z" fill="#FF703E"/>
<path d="M145.781 183.007C145.248 184.522 142.084 184.79 138.712 183.604C135.341 182.42 133.04 180.23 133.573 178.715C134.105 177.2 137.27 176.932 140.641 178.118C144.013 179.302 146.313 181.492 145.781 183.007Z" fill="#FFF5E1"/>
<path d="M179.184 225.017C178.59 215.132 177.37 205.275 175.526 195.566C175.495 195.402 175.335 195.296 175.174 195.327C175.01 195.358 174.903 195.515 174.934 195.68C176.771 205.352 177.987 215.171 178.58 225.018H179.184V225.017Z" fill="#003F46"/>
<path d="M178.717 221.193C179.414 220.47 180.44 220.2 181.397 219.897C183.567 219.209 185.678 218.172 187.263 216.538C188.848 214.904 189.852 212.609 189.569 210.35C186.664 210.149 183.661 211.054 181.614 213.125C179.567 215.196 178.483 218.291 178.717 221.193Z" fill="#003F46"/>
<path d="M178.151 215.296C177.245 212.653 174.891 210.56 172.161 209.967C171.416 209.805 170.653 209.748 169.891 209.729C169.25 209.712 168.552 209.742 168.062 210.154C168.545 211.051 168.535 212.011 168.871 212.974C169.452 214.638 171.171 215.692 172.909 215.987C174.647 216.282 176.42 215.624 178.151 215.296Z" fill="#003F46"/>
<path d="M157.99 203.727C158.551 205.313 160.13 206.415 162.385 206.998C162.688 207.076 163.012 206.986 163.242 206.773L171.762 198.877L167.518 206.037C167.138 206.679 167.624 207.495 168.368 207.448C171.288 207.268 174.582 206.601 177.95 205.413C178.995 205.046 180 204.646 180.963 204.22C181.453 204.003 181.649 203.412 181.402 202.936L178.236 196.841L184.98 201.454C185.292 201.667 185.708 201.674 186.023 201.465C189.016 199.481 191.174 197.261 192.125 195.166C192.406 194.547 191.928 193.848 191.248 193.861L177.693 194.106L188.008 190.582C188.832 190.3 188.86 189.138 188.048 188.825C185.08 187.681 180.779 187.599 175.569 188.974C175.233 189.063 174.97 189.337 174.894 189.676L173.815 194.442L172.025 189.899C171.829 189.404 171.265 189.168 170.779 189.386C168.241 190.53 164.715 192.488 162.376 194.029C161.709 194.469 161.877 195.491 162.647 195.703L168.279 197.264L159.693 198.472C159.434 198.509 159.194 198.652 159.047 198.87C157.894 200.586 157.478 202.27 157.99 203.727Z" fill="#FF703E"/>
<path d="M167.742 198.953C168.274 200.469 171.439 200.736 174.81 199.551C178.182 198.366 180.482 196.177 179.95 194.662C179.417 193.147 176.253 192.879 172.881 194.064C169.51 195.249 167.209 197.438 167.742 198.953Z" fill="#FFF5E1"/>
<path d="M78.6621 181.289C78.6621 181.289 71.1177 181.553 61.9987 181.454C52.8797 181.355 46.3688 180.567 52.3839 176.341C52.3839 176.341 60.7621 176.843 62.915 176.833C64.709 176.825 67.0482 170.301 69.6729 169.622C71.2006 169.228 72.4072 169.745 72.4072 169.745L69.4216 176.357C70.1139 176.172 71.2126 174.064 73.1708 170.422C74.1126 168.67 75.3955 167.838 76.7929 167.794C78.0148 167.755 79.0399 168.537 79.0399 168.537L76.7994 175.529C77.1972 175.475 78.0819 174.315 78.8116 172.256C79.4242 170.529 81.0309 168.094 83.2918 168.287C84.5662 168.396 85.0704 169.05 85.0704 169.05C85.0704 169.05 83.2675 175.631 82.8681 176.881C81.7872 180.267 78.6621 181.289 78.6621 181.289Z" fill="#FFC298"/>
<path d="M62.915 176.833C62.915 176.833 69.3102 177.765 72.7025 181.426L62.915 176.833Z" fill="#FFC298"/>
<path d="M62.915 176.833C62.915 176.833 69.3102 177.765 72.7025 181.426" stroke="#222222" stroke-width="1.0973" stroke-miterlimit="10" stroke-linecap="round" stroke-linejoin="round"/>
<path d="M69.4217 176.357C69.0856 177.106 67.9037 177.6 65.9177 177.555L69.4217 176.357Z" fill="#FFC298"/>
<path d="M69.4217 176.357C69.0856 177.106 67.9037 177.6 65.9177 177.555" stroke="#222222" stroke-width="1.0973" stroke-miterlimit="10" stroke-linecap="round" stroke-linejoin="round"/>
<path d="M61.0824 175.834V142.794" stroke="#003F46" stroke-width="2" stroke-miterlimit="10" stroke-linecap="round" stroke-linejoin="round"/>
<path d="M76.0462 180.936C73.2502 177.165 67.4606 174.319 61.0693 173.95C54.6779 173.58 47.9813 175.879 45.2675 179.676C54.7816 181.412 66.3273 182.092 76.0462 180.936Z" fill="#7D4F19"/>
<path d="M60.988 156.903C61.4599 155.359 63.9975 154.562 66.2703 154.158C71.1074 153.298 76.3924 153.085 80.5002 151.168C83.4306 149.801 85.4498 147.668 86.5045 145.381C87.5588 143.094 87.7049 140.655 87.4131 138.269C82.5313 138.008 76.8801 137.57 72.8718 139.457C69.8473 140.88 67.9441 143.132 66.4226 145.39C64.1953 148.694 61.9691 153.338 60.988 156.903Z" fill="#98CA3B"/>
<path d="M87.2427 138.276C84.6495 138.629 82.3405 139.6 80.2215 140.663C71.8946 144.838 65.6247 150.627 60.778 156.795" stroke="#003F46" stroke-width="1.646" stroke-miterlimit="10" stroke-linecap="round" stroke-linejoin="round"/>
<path d="M60.9271 149.209C60.998 147.633 58.8015 146.466 56.728 145.723C52.3153 144.14 47.2454 143.117 43.9056 140.619C41.5225 138.836 40.2897 136.449 40.048 134.061C39.8063 131.672 40.5006 129.277 41.6034 127C46.444 127.498 52.094 127.944 55.3475 130.397C57.8023 132.249 58.8821 134.734 59.5883 137.166C60.6221 140.724 61.1954 145.587 60.9271 149.209Z" fill="#98CA3B"/>
<path d="M41.7669 127.032C44.1696 127.775 46.0836 129.077 47.7812 130.437C54.4528 135.784 58.5683 142.386 61.1688 149.135" stroke="#003F46" stroke-width="1.646" stroke-miterlimit="10" stroke-linecap="round" stroke-linejoin="round"/>
<path d="M87.1807 182.285C84.299 178.1 77.5872 179.115 77.5872 179.115C77.5872 179.115 68.7803 179.588 58.135 179.41C47.4898 179.233 39.8898 177.825 46.9111 170.269C46.9111 170.269 57.7323 160.453 58.0288 154.602C58.3254 148.751 55.147 150.418 55.147 150.418L32.7451 166.783L-6.75 179.45V206.797L9.1431 202.741C9.57555 202.399 56.7868 190.478 72.0949 188.435C87.4035 186.392 90.0625 186.47 87.1807 182.285Z" fill="#FFD1B0"/>
<path d="M185.769 41.9198L167.94 31.1976C167.94 31.1976 159.946 31.8749 165.756 38.4647C171.567 45.0545 176.397 47.9767 176.397 47.9767L185.769 41.9198Z" fill="#F4C49D"/>
<path d="M150.13 127.552L148.971 127.103L139.887 123.577L86 102.683L88.0461 97.1657L133.584 106.41L134.234 106.536L138.524 107.407L150.13 127.552Z" fill="#FF703E"/>
<path d="M148.971 127.103L139.887 123.577L133.584 106.41L134.234 106.536L148.971 127.103Z" fill="#003F46"/>
<path d="M154.837 138.156L109.07 66.5221L137.732 36.9197L205.138 90.2965L154.837 138.156Z" fill="#FF703E"/>
<path d="M137.333 63.0724C137.977 64.9052 137.013 66.9136 135.18 67.5576C133.347 68.2015 131.339 67.2376 130.695 65.4047C130.051 63.5714 131.015 61.5636 132.848 60.9196C134.681 60.2757 136.689 61.2395 137.333 63.0724Z" fill="#003F46"/>
<path d="M132.816 63.8608C132.816 63.8608 103.243 33.768 108.224 27.2236C113.204 20.6797 132.418 42.5155 132.418 42.5155" stroke="#003F46" stroke-width="4.3741" stroke-miterlimit="10"/>
<path d="M194.72 88.9888C192.579 80.6813 188.876 72.8585 185.193 65.6423L184.313 63.9179C180.915 57.2453 177.706 50.9431 173.615 44.8861C173.27 44.3758 172.888 43.7728 172.445 43.0744C170.075 39.3398 165.147 31.5674 161.277 32.9732C160.105 33.3989 159.267 34.8758 158.603 36.2641C155.822 42.0776 154.152 48.2831 153.64 54.7082L149.716 54.3955C150.266 47.488 152.061 40.8163 155.052 34.5653C156.06 32.4589 157.428 30.1832 159.934 29.2733C166.776 26.7871 172.405 35.6642 175.769 40.9661C176.196 41.6389 176.565 42.2198 176.878 42.6833C181.103 48.941 184.519 55.6469 187.821 62.1314L188.698 63.8527C192.484 71.27 196.296 79.3295 198.532 88.0069L194.72 88.9888Z" fill="#FF703E"/>
<path d="M186.466 39.7773C186.466 39.7773 182.921 39.3295 178.729 39.8101C178.727 39.8097 178.726 39.8088 178.725 39.8083C176.821 39.2134 170.53 41.3077 170.53 41.3077C170.53 41.3077 163.197 44.2903 163.511 48.0033C163.742 50.7325 166.377 53.9172 166.377 53.9172C166.377 53.9172 165.677 55.8819 167.751 59.2105C169.825 62.5392 173.509 63.5166 173.509 63.5166C173.509 63.5166 177.127 70.4812 178.712 71.2606C180.298 72.04 183.008 70.6086 183.008 70.6086C183.008 70.6086 185.95 76.4077 188.287 76.0423C189.715 75.8191 192.254 74.1424 193.924 72.0054C193.99 72.0387 194.026 72.0571 194.026 72.0571C194.026 72.0571 200.786 62.3074 216.567 65.0727C232.347 67.8384 238.822 70.0204 238.822 70.0204V41.6457L186.466 39.7773Z" fill="#FED8B4"/>
<path d="M166.377 53.9172L175.189 48.7503" stroke="#003F46" stroke-width="2" stroke-miterlimit="10" stroke-linecap="round" stroke-linejoin="round"/>
<path d="M173.64 63.8653L181.32 59.4067" stroke="#003F46" stroke-width="2" stroke-miterlimit="10" stroke-linecap="round" stroke-linejoin="round"/>
<path d="M183.007 70.6086L187.928 67.7515" stroke="#003F46" stroke-width="2" stroke-miterlimit="10" stroke-linecap="round" stroke-linejoin="round"/>
<path d="M17.7305 21.0283L19.6308 21.6705C19.7843 21.7222 19.7847 21.9391 19.6313 21.9913L17.7359 22.6411C17.6859 22.6582 17.6472 22.6974 17.6301 22.7473L16.988 24.6477C16.9362 24.8011 16.7193 24.8016 16.6671 24.6486L16.0173 22.7532C16.0002 22.7032 15.9611 22.6645 15.9111 22.6474L14.0108 22.0053C13.8573 21.9535 13.8569 21.7366 14.0099 21.6844L15.9053 21.0346C15.9552 21.0175 15.9939 20.9784 16.011 20.9284L16.6532 19.0281C16.7049 18.8746 16.9218 18.8742 16.974 19.0276L17.6238 20.923C17.6414 20.9725 17.6805 21.0112 17.7305 21.0283Z" fill="#98CA3B"/>
<path d="M35.4272 206.642L37.3275 207.284C37.481 207.336 37.4814 207.552 37.328 207.605L35.4326 208.254C35.3826 208.272 35.3439 208.311 35.3268 208.361L34.6847 210.261C34.6329 210.414 34.416 210.415 34.3638 210.262L33.714 208.366C33.6969 208.317 33.6578 208.278 33.6078 208.261L31.7075 207.619C31.554 207.567 31.5536 207.35 31.7066 207.298L33.602 206.648C33.6519 206.631 33.6906 206.592 33.7077 206.542L34.3499 204.641C34.4016 204.488 34.6181 204.487 34.6707 204.641L35.3205 206.536C35.3381 206.586 35.3772 206.625 35.4272 206.642Z" fill="#98CA3B"/>
<path d="M76.9962 116.796C77.0111 116.437 76.9762 116.077 76.886 115.725C76.2451 113.222 73.0846 111.514 72.4999 109C71.915 111.514 68.7544 113.222 68.1137 115.725C68.0235 116.077 67.9885 116.437 68.0036 116.796C68.0014 116.848 68 116.899 68 116.951C68 119.187 70.0148 121 72.5 121C74.9852 121 77 119.187 77 116.951C76.9997 116.899 76.9983 116.848 76.9962 116.796Z" fill="#9DE0EB"/>
<path d="M76.9961 116.796C77.011 116.437 76.9762 116.077 76.886 115.725C76.2661 113.304 73.2901 111.627 72.5658 109.246C72.5792 109.468 72.6313 109.689 72.6923 109.903C72.7826 110.219 72.8846 110.534 72.9854 110.848C73.1968 111.506 73.4691 112.147 73.7691 112.777C74.0461 113.357 74.3626 113.923 74.621 114.511C75.0897 115.577 75.3986 116.771 74.9791 117.893C74.7664 118.462 74.3807 118.957 73.939 119.401C73.5614 119.781 73.1266 120.119 72.6355 120.375C72.1959 120.604 71.7144 120.761 71.213 120.832C71.6206 120.941 72.0524 121 72.4995 121C74.9848 121 76.9995 119.187 76.9995 116.951C76.9997 116.899 76.9982 116.848 76.9961 116.796Z" fill="#83C9CF"/>
<path d="M69.2472 116.649C69.2349 116.162 69.3324 115.672 69.5459 115.223" stroke="white" stroke-width="2.3089" stroke-miterlimit="10" stroke-linecap="round" stroke-linejoin="round"/>
<path d="M70.1064 118.788C69.696 118.337 69.427 117.788 69.3112 117.215" stroke="white" stroke-width="2.3089" stroke-miterlimit="10" stroke-linecap="round" stroke-linejoin="round"/>
<path d="M68.9962 131.796C69.0111 131.437 68.9762 131.077 68.886 130.725C68.2451 128.222 65.0846 126.514 64.4999 124C63.915 126.514 60.7544 128.222 60.1137 130.725C60.0235 131.077 59.9885 131.437 60.0036 131.796C60.0014 131.848 60 131.899 60 131.951C60 134.187 62.0148 136 64.5 136C66.9852 136 69 134.187 69 131.951C68.9997 131.899 68.9983 131.848 68.9962 131.796Z" fill="#9DE0EB"/>
<path d="M68.9961 131.796C69.011 131.437 68.9762 131.077 68.886 130.725C68.2661 128.304 65.2901 126.627 64.5658 124.246C64.5792 124.468 64.6313 124.689 64.6923 124.903C64.7826 125.219 64.8846 125.534 64.9854 125.848C65.1968 126.506 65.4691 127.147 65.7691 127.777C66.0461 128.357 66.3626 128.923 66.621 129.511C67.0897 130.577 67.3986 131.771 66.9791 132.893C66.7664 133.462 66.3807 133.957 65.939 134.401C65.5614 134.781 65.1266 135.119 64.6355 135.375C64.1959 135.604 63.7144 135.761 63.213 135.832C63.6206 135.941 64.0524 136 64.4995 136C66.9848 136 68.9995 134.187 68.9995 131.951C68.9997 131.899 68.9982 131.848 68.9961 131.796Z" fill="#83C9CF"/>
<path d="M61.2472 131.649C61.2349 131.162 61.3324 130.672 61.5459 130.223" stroke="white" stroke-width="2.3089" stroke-miterlimit="10" stroke-linecap="round" stroke-linejoin="round"/>
<path d="M62.1064 133.788C61.696 133.337 61.427 132.788 61.3112 132.215" stroke="white" stroke-width="2.3089" stroke-miterlimit="10" stroke-linecap="round" stroke-linejoin="round"/>
<path d="M82.9962 129.796C83.0111 129.437 82.9762 129.077 82.886 128.725C82.2451 126.222 79.0846 124.514 78.4999 122C77.915 124.514 74.7544 126.222 74.1137 128.725C74.0235 129.077 73.9885 129.437 74.0036 129.796C74.0014 129.848 74 129.899 74 129.951C74 132.187 76.0148 134 78.5 134C80.9852 134 83 132.187 83 129.951C82.9997 129.899 82.9983 129.848 82.9962 129.796Z" fill="#9DE0EB"/>
<path d="M82.9961 129.796C83.011 129.437 82.9762 129.077 82.886 128.725C82.2661 126.304 79.2901 124.627 78.5658 122.246C78.5792 122.468 78.6313 122.689 78.6923 122.903C78.7826 123.219 78.8846 123.534 78.9854 123.848C79.1968 124.506 79.4691 125.147 79.7691 125.777C80.0461 126.357 80.3626 126.923 80.621 127.511C81.0897 128.577 81.3986 129.771 80.9791 130.893C80.7664 131.462 80.3807 131.957 79.939 132.401C79.5614 132.781 79.1266 133.119 78.6355 133.375C78.1959 133.604 77.7144 133.761 77.213 133.832C77.6206 133.941 78.0524 134 78.4995 134C80.9848 134 82.9995 132.187 82.9995 129.951C82.9997 129.899 82.9982 129.848 82.9961 129.796Z" fill="#83C9CF"/>
<path d="M75.2472 129.649C75.2349 129.162 75.3324 128.672 75.5459 128.223" stroke="white" stroke-width="2.3089" stroke-miterlimit="10" stroke-linecap="round" stroke-linejoin="round"/>
<path d="M76.1064 131.788C75.696 131.337 75.427 130.788 75.3112 130.215" stroke="white" stroke-width="2.3089" stroke-miterlimit="10" stroke-linecap="round" stroke-linejoin="round"/>
<path d="M84.9962 107.796C85.0111 107.437 84.9762 107.077 84.886 106.725C84.2451 104.222 81.0846 102.514 80.4999 100C79.915 102.514 76.7544 104.222 76.1137 106.725C76.0235 107.077 75.9885 107.437 76.0036 107.796C76.0014 107.848 76 107.899 76 107.951C76 110.187 78.0148 112 80.5 112C82.9852 112 85 110.187 85 107.951C84.9997 107.899 84.9983 107.848 84.9962 107.796Z" fill="#9DE0EB"/>
<path d="M84.9961 107.796C85.011 107.437 84.9762 107.077 84.886 106.725C84.2661 104.304 81.2901 102.627 80.5658 100.246C80.5792 100.468 80.6313 100.689 80.6923 100.903C80.7826 101.219 80.8846 101.534 80.9854 101.848C81.1968 102.506 81.4691 103.147 81.7691 103.777C82.0461 104.357 82.3626 104.923 82.621 105.511C83.0897 106.577 83.3986 107.771 82.9791 108.893C82.7664 109.462 82.3807 109.957 81.939 110.401C81.5614 110.781 81.1266 111.119 80.6355 111.375C80.1959 111.604 79.7144 111.761 79.213 111.832C79.6206 111.941 80.0524 112 80.4995 112C82.9848 112 84.9995 110.187 84.9995 107.951C84.9997 107.899 84.9982 107.848 84.9961 107.796Z" fill="#83C9CF"/>
<path d="M77.2472 107.649C77.2349 107.162 77.3324 106.672 77.5459 106.223" stroke="white" stroke-width="2.3089" stroke-miterlimit="10" stroke-linecap="round" stroke-linejoin="round"/>
<path d="M78.1064 109.788C77.696 109.337 77.427 108.788 77.3112 108.215" stroke="white" stroke-width="2.3089" stroke-miterlimit="10" stroke-linecap="round" stroke-linejoin="round"/>
</g>
<defs>
<clipPath id="clip0_876_1728">
<rect width="225" height="225" rx="112.5" fill="white"/>
</clipPath>
</defs>
</svg>
