<svg width="274" height="300" viewBox="0 0 274 300" fill="none" xmlns="http://www.w3.org/2000/svg">
<path d="M96.676 259H19.3322V40.8182H97.3152C119.261 40.8182 138.153 45.1861 153.991 53.9219C169.829 62.5866 182.01 75.0511 190.533 91.3153C199.126 107.58 203.423 127.04 203.423 149.696C203.423 172.423 199.126 191.955 190.533 208.29C182.01 224.625 169.758 237.161 153.778 245.896C137.869 254.632 118.835 259 96.676 259ZM65.4615 219.476H94.7583C108.395 219.476 119.865 217.061 129.169 212.232C138.544 207.331 145.575 199.767 150.263 189.54C155.021 179.241 157.4 165.96 157.4 149.696C157.4 133.574 155.021 120.399 150.263 110.172C145.575 99.9446 138.579 92.4162 129.275 87.5866C119.971 82.7571 108.501 80.3423 94.8649 80.3423H65.4615V219.476Z" fill="white"/>
<path d="M133.082 167H126.491L136.533 137.909H144.46L154.488 167H147.897L140.61 144.557H140.383L133.082 167ZM132.67 155.565H148.238V160.366H132.67V155.565Z" fill="white"/>
<path d="M194.654 138.909V168H189.341L176.685 149.69H176.472V168H170.321V138.909H175.719L188.276 157.205H188.532V138.909H194.654Z" fill="black"/>
<path d="M214.806 169V139.909H226.453C228.594 139.909 230.379 140.226 231.809 140.861C233.239 141.495 234.313 142.376 235.033 143.503C235.753 144.62 236.113 145.908 236.113 147.366C236.113 148.503 235.885 149.502 235.431 150.364C234.976 151.216 234.351 151.917 233.556 152.466C232.77 153.006 231.87 153.389 230.857 153.616V153.901C231.965 153.948 233.002 154.26 233.968 154.838C234.943 155.416 235.734 156.225 236.34 157.267C236.946 158.299 237.249 159.53 237.249 160.96C237.249 162.504 236.865 163.882 236.098 165.094C235.341 166.296 234.219 167.248 232.732 167.949C231.245 168.65 229.413 169 227.235 169H214.806ZM220.956 163.972H225.971C227.685 163.972 228.935 163.645 229.721 162.991C230.507 162.329 230.9 161.448 230.9 160.349C230.9 159.545 230.705 158.834 230.317 158.219C229.929 157.603 229.375 157.12 228.655 156.77C227.945 156.42 227.097 156.244 226.113 156.244H220.956V163.972ZM220.956 152.082H225.516C226.359 152.082 227.107 151.936 227.76 151.642C228.423 151.339 228.944 150.913 229.323 150.364C229.711 149.814 229.905 149.156 229.905 148.389C229.905 147.338 229.531 146.491 228.783 145.847C228.044 145.203 226.993 144.881 225.63 144.881H220.956V152.082Z" fill="white"/>
<path d="M257.574 138.909V168H251.423V138.909H257.574Z" fill="white"/>
</svg>
