<svg width="34" height="49" viewBox="0 0 34 49" fill="none" xmlns="http://www.w3.org/2000/svg">
<path fill-rule="evenodd" clip-rule="evenodd" d="M30.1818 29.0909C30.1818 39.2727 17.0909 48 17.0909 48C17.0909 48 4 39.2727 4 29.0909C4 21.861 9.861 16 17.0909 16C24.3208 16 30.1818 21.861 30.1818 29.0909V29.0909Z" fill="#EF4650" stroke="#EF4650" stroke-width="2" stroke-linecap="round" stroke-linejoin="round"/>
<path d="M9.252 4.244C9.252 4.548 9.172 4.764 9.012 4.892C8.86 5.02 8.632 5.084 8.328 5.084H6.312V6.32H10.836C10.876 6.32 10.916 6.34 10.956 6.38C10.996 6.412 11.016 6.452 11.016 6.5V7.292C11.016 7.332 10.996 7.372 10.956 7.412C10.916 7.452 10.876 7.472 10.836 7.472H0.396C0.348 7.472 0.308 7.456 0.276 7.424C0.244 7.384 0.228 7.34 0.228 7.292V6.5C0.228 6.38 0.284 6.32 0.396 6.32H4.932V5.084H2.904C2.536 5.084 2.288 5.024 2.16 4.904C2.04 4.776 1.98 4.556 1.98 4.244V1.988C1.98 1.684 2.056 1.468 2.208 1.34C2.368 1.212 2.6 1.148 2.904 1.148H8.328C8.696 1.148 8.94 1.208 9.06 1.328C9.188 1.448 9.252 1.668 9.252 1.988V4.244ZM9.3 12.128C9.3 12.168 9.28 12.204 9.24 12.236C9.208 12.276 9.172 12.296 9.132 12.296H8.1C8.052 12.296 8.008 12.276 7.968 12.236C7.936 12.204 7.92 12.168 7.92 12.128V9.704C7.92 9.624 7.904 9.572 7.872 9.548C7.84 9.524 7.78 9.512 7.692 9.512H1.872C1.832 9.512 1.792 9.496 1.752 9.464C1.72 9.432 1.704 9.396 1.704 9.356V8.504C1.704 8.456 1.72 8.42 1.752 8.396C1.792 8.372 1.832 8.36 1.872 8.36H8.508C8.812 8.36 9.02 8.424 9.132 8.552C9.244 8.672 9.3 8.884 9.3 9.188V12.128ZM7.872 2.432C7.872 2.368 7.86 2.328 7.836 2.312C7.812 2.288 7.768 2.276 7.704 2.276H3.54C3.468 2.276 3.42 2.284 3.396 2.3C3.38 2.316 3.372 2.356 3.372 2.42V3.8C3.372 3.872 3.38 3.916 3.396 3.932C3.42 3.948 3.468 3.956 3.54 3.956H7.704C7.776 3.956 7.82 3.948 7.836 3.932C7.86 3.916 7.872 3.872 7.872 3.8V2.432ZM12.7492 7.448C12.7012 7.48 12.6372 7.496 12.5572 7.496C12.4772 7.488 12.4132 7.44 12.3652 7.352L12.0172 6.764C11.9772 6.7 11.9652 6.632 11.9812 6.56C11.9972 6.488 12.0452 6.436 12.1252 6.404C12.5732 6.204 12.9972 5.976 13.3972 5.72C13.7972 5.456 14.1572 5.176 14.4772 4.88C14.8052 4.584 15.0892 4.276 15.3292 3.956C15.5692 3.628 15.7532 3.3 15.8812 2.972C15.9132 2.9 15.9252 2.836 15.9172 2.78C15.9172 2.724 15.8532 2.696 15.7252 2.696H12.7492C12.6372 2.696 12.5812 2.632 12.5812 2.504V1.712C12.5812 1.664 12.5972 1.624 12.6292 1.592C12.6692 1.56 12.7132 1.544 12.7612 1.544H16.5532C16.9052 1.544 17.1652 1.608 17.3332 1.736C17.5092 1.864 17.5772 2.06 17.5372 2.324C17.5212 2.412 17.4972 2.504 17.4652 2.6C17.4412 2.696 17.4172 2.78 17.3932 2.852C17.1852 3.444 16.8852 4.004 16.4932 4.532C16.6372 4.676 16.7972 4.824 16.9732 4.976C17.1492 5.12 17.3292 5.26 17.5132 5.396C17.7052 5.524 17.8932 5.644 18.0772 5.756C18.2692 5.868 18.4452 5.96 18.6052 6.032C18.7652 6.112 18.8052 6.228 18.7252 6.38L18.3292 7.028C18.2892 7.092 18.2412 7.132 18.1852 7.148C18.1292 7.164 18.0572 7.152 17.9692 7.112C17.8252 7.04 17.6572 6.944 17.4652 6.824C17.2732 6.704 17.0732 6.568 16.8652 6.416C16.6572 6.264 16.4532 6.104 16.2532 5.936C16.0532 5.768 15.8692 5.6 15.7012 5.432C15.2932 5.832 14.8412 6.204 14.3452 6.548C13.8572 6.884 13.3252 7.184 12.7492 7.448ZM21.1972 12.092C21.1972 12.132 21.1772 12.168 21.1372 12.2C21.0972 12.24 21.0572 12.26 21.0172 12.26H19.9972C19.9412 12.26 19.8932 12.24 19.8532 12.2C19.8212 12.168 19.8052 12.132 19.8052 12.092V9.488C19.8052 9.4 19.7892 9.344 19.7572 9.32C19.7252 9.296 19.6692 9.284 19.5892 9.284H14.0332C13.9932 9.284 13.9532 9.272 13.9132 9.248C13.8812 9.216 13.8652 9.18 13.8652 9.14V8.288C13.8652 8.24 13.8812 8.204 13.9132 8.18C13.9532 8.156 13.9932 8.144 14.0332 8.144H20.3932C20.6972 8.144 20.9052 8.208 21.0172 8.336C21.1372 8.456 21.1972 8.668 21.1972 8.972V12.092ZM17.7532 4.652V3.812C17.7532 3.772 17.7692 3.74 17.8012 3.716C17.8412 3.684 17.8812 3.668 17.9212 3.668H19.8052V1.052C19.8052 0.947999 19.8612 0.895999 19.9732 0.895999H21.0292C21.0692 0.895999 21.1052 0.911999 21.1372 0.943999C21.1772 0.975999 21.1972 1.012 21.1972 1.052V7.376C21.1972 7.416 21.1772 7.456 21.1372 7.496C21.1052 7.528 21.0692 7.544 21.0292 7.544H19.9732C19.9252 7.544 19.8852 7.528 19.8532 7.496C19.8212 7.456 19.8052 7.416 19.8052 7.376V4.796H17.9212C17.8812 4.796 17.8412 4.784 17.8012 4.76C17.7692 4.728 17.7532 4.692 17.7532 4.652ZM23.9143 9.392C23.8503 9.432 23.7823 9.448 23.7103 9.44C23.6383 9.432 23.5823 9.396 23.5423 9.332L23.0743 8.708C23.0183 8.636 23.0063 8.568 23.0383 8.504C23.0783 8.44 23.1263 8.392 23.1823 8.36C23.6863 8.048 24.1663 7.688 24.6223 7.28C25.0783 6.872 25.4863 6.444 25.8463 5.996C26.2143 5.548 26.5263 5.092 26.7823 4.628C27.0383 4.156 27.2223 3.704 27.3343 3.272C27.3663 3.136 27.3703 3.048 27.3463 3.008C27.3223 2.968 27.2423 2.948 27.1063 2.948H24.0103C23.9623 2.948 23.9223 2.932 23.8903 2.9C23.8663 2.86 23.8543 2.816 23.8543 2.768V1.964C23.8543 1.852 23.9103 1.796 24.0223 1.796H27.9343C28.2463 1.796 28.4903 1.856 28.6663 1.976C28.8423 2.096 28.9303 2.252 28.9303 2.444C28.9303 2.548 28.9223 2.656 28.9063 2.768C28.8903 2.872 28.8703 2.968 28.8463 3.056C28.7343 3.48 28.5823 3.908 28.3903 4.34C28.2063 4.764 27.9783 5.192 27.7063 5.624C27.8583 5.832 28.0343 6.052 28.2343 6.284C28.4343 6.508 28.6423 6.728 28.8583 6.944C29.0743 7.16 29.2863 7.364 29.4943 7.556C29.7023 7.74 29.8903 7.892 30.0583 8.012C30.1143 8.052 30.1503 8.104 30.1663 8.168C30.1903 8.232 30.1783 8.296 30.1303 8.36L29.6143 8.948C29.5103 9.06 29.3783 9.068 29.2183 8.972C29.0743 8.876 28.9023 8.744 28.7023 8.576C28.5103 8.4 28.3103 8.208 28.1023 8C27.8943 7.792 27.6903 7.572 27.4903 7.34C27.2903 7.108 27.1103 6.888 26.9503 6.68C26.5423 7.184 26.0863 7.668 25.5823 8.132C25.0783 8.588 24.5223 9.008 23.9143 9.392ZM32.4703 12.128C32.4703 12.232 32.4143 12.284 32.3023 12.284H31.2463C31.2063 12.284 31.1663 12.268 31.1263 12.236C31.0943 12.212 31.0783 12.176 31.0783 12.128V1.052C31.0783 1.012 31.0943 0.975999 31.1263 0.943999C31.1663 0.911999 31.2063 0.895999 31.2463 0.895999H32.3023C32.4143 0.895999 32.4703 0.947999 32.4703 1.052V12.128Z" fill="black"/>
</svg>
