<svg width="11" height="16" viewBox="0 0 11 16" fill="none" xmlns="http://www.w3.org/2000/svg">
<path d="M10.9953 10.395C11.0136 9.91637 10.971 9.43562 10.8607 8.96617C10.0774 5.62943 6.21447 3.35164 5.49983 0C4.785 3.35164 0.922085 5.62925 0.138929 8.96617C0.0286895 9.4358 -0.014084 9.91637 0.00434727 10.395C0.00173907 10.4633 0 10.5319 0 10.6008C0 13.5828 2.46249 16 5.5 16C8.53751 16 11 13.5828 11 10.6008C10.9997 10.5319 10.9979 10.4633 10.9953 10.395Z" fill="#9DE0EB"/>
<path d="M10.9952 10.3949C11.0135 9.91632 10.9709 9.43557 10.8606 8.96613C10.103 5.73921 6.46565 3.50269 5.58043 0.327454C5.59677 0.62355 5.66041 0.918571 5.73501 1.20372C5.84542 1.62526 5.97009 2.04499 6.0932 2.4633C6.35158 3.341 6.68439 4.19627 7.0511 5.03557C7.38965 5.80991 7.77653 6.56343 8.0923 7.34728C8.66523 8.76962 9.04273 10.3608 8.52995 11.8569C8.27 12.6157 7.79861 13.2753 7.25872 13.8677C6.79724 14.3741 6.26586 14.8258 5.66563 15.1669C5.12834 15.4724 4.53976 15.6812 3.927 15.7756C4.42517 15.9213 4.95289 16 5.4994 16C8.53691 16 10.9994 13.5827 10.9994 10.6008C10.9996 10.5318 10.9978 10.4633 10.9952 10.3949Z" fill="#83C9CF"/>
<path d="M1.52432 10.199C1.50937 9.54917 1.62847 8.89578 1.88947 8.29749" stroke="white" stroke-width="2.3089" stroke-miterlimit="10" stroke-linecap="round" stroke-linejoin="round"/>
<path d="M2.57453 13.0509C2.07289 12.4489 1.74408 11.7169 1.60254 10.9531" stroke="white" stroke-width="2.3089" stroke-miterlimit="10" stroke-linecap="round" stroke-linejoin="round"/>
</svg>
