<svg width="16" height="16" viewBox="0 0 16 16" fill="none" xmlns="http://www.w3.org/2000/svg">
<path d="M2 11.5002V14.0002H4.5L11.8733 6.62683L9.37333 4.12683L2 11.5002ZM13.8067 4.6935C13.8685 4.63182 13.9175 4.55856 13.951 4.47791C13.9844 4.39727 14.0016 4.31081 14.0016 4.2235C14.0016 4.13619 13.9844 4.04973 13.951 3.96908C13.9175 3.88843 13.8685 3.81517 13.8067 3.7535L12.2467 2.1935C12.185 2.1317 12.1117 2.08266 12.0311 2.04921C11.9504 2.01576 11.864 1.99854 11.7767 1.99854C11.6894 1.99854 11.6029 2.01576 11.5223 2.04921C11.4416 2.08266 11.3683 2.1317 11.3067 2.1935L10.0867 3.4135L12.5867 5.9135L13.8067 4.6935V4.6935Z" fill="white"/>
</svg>
