<svg width="62" height="26" viewBox="0 0 62 26" fill="none" xmlns="http://www.w3.org/2000/svg">
<path fill-rule="evenodd" clip-rule="evenodd" d="M1.79383 0.447691C0.771695 1.53366 0 3.40526 0 4.79879C0 5.5515 0.336273 6.90139 0.653936 7.42376C0.771856 7.61779 0.838758 8.13185 0.81726 8.68156C0.754369 10.304 1.5235 12.0875 2.85559 13.4074C3.21016 13.7588 3.38664 14.1092 3.52718 14.7412C3.97544 16.7573 5.46332 18.4645 7.9706 19.8395C11.007 21.5047 13.789 22.019 19.7822 22.0233C22.8574 22.0254 24.1311 22.173 25.9349 22.7364C26.5662 22.9336 27.4067 23.2986 27.8029 23.5474L28.5231 24L28.6965 23.3134C29.2861 20.9789 29.3357 17.6804 28.8054 16.0835C27.9586 13.534 26.4924 11.7279 23.9328 10.0819C21.5755 8.56584 19.1135 7.65924 12.9953 6.05408C10.8339 5.48708 8.68567 4.84484 7.96098 4.54909C5.73429 3.64031 3.51274 1.94699 2.7903 0.608033C2.63836 0.326286 2.46397 0.0559141 2.40268 0.00735221C2.34156 -0.0413191 2.06753 0.156866 1.79383 0.447691ZM59.5783 0.232443C59.0233 1.36566 57.4891 2.8853 56.1207 3.65671C54.3081 4.6787 53.0968 5.10745 49.1921 6.10931C42.5155 7.82221 40.1811 8.73012 37.4298 10.6839C35.3273 12.1768 34.0615 13.866 33.3504 16.1274C32.8774 17.6318 32.8385 20.7749 33.2692 22.6799C33.4253 23.3708 33.5813 23.9552 33.6154 23.9785C33.6496 24.0018 34.0146 23.8185 34.4268 23.5713C35.3124 23.0398 36.4037 22.6701 38.0366 22.3486C39.0536 22.1482 39.8557 22.1016 43.5583 22.028C47.5671 21.9483 47.9955 21.9204 49.303 21.654C53.9171 20.7142 57.3213 18.421 58.3976 15.5273C58.5746 15.0515 58.7194 14.5239 58.7194 14.3549C58.7194 14.18 59.018 13.7284 59.413 13.306C60.7645 11.8606 61.2803 10.6582 61.284 8.94482C61.2859 8.07858 61.3625 7.70168 61.6397 7.19484C61.9444 6.63747 61.9938 6.32335 61.9992 4.90817C62.0055 3.33187 61.9851 3.22731 61.4812 2.24043C60.9681 1.23606 60.0548 0.0410392 59.8 0.0410392C59.7296 0.0410392 59.6298 0.127116 59.5783 0.232443Z" fill="#DEDEDE"/>
<path fill-rule="evenodd" clip-rule="evenodd" d="M23.6677 6.15154C16.7059 13.8087 16.1671 19.3795 21.999 23.4065C30.1177 29.0141 42 24.7742 42 16.2709C42 13.0992 40.4212 10.1917 36.3881 5.9387C33.3022 2.68426 30.4394 0.0105486 30.0279 3.77415e-05C29.6163 -0.011787 26.755 2.75652 23.6677 6.15154Z" fill="#DD9BE8"/>
<path d="M29.124 12.944L29.1 14.828H29.58C29.908 14.82 30.2 14.816 30.456 14.816C30.712 14.816 30.996 14.82 31.308 14.828H31.368C31.464 14.828 31.556 14.832 31.644 14.84C31.74 14.84 31.832 14.84 31.92 14.84C32.016 14.848 32.108 14.864 32.196 14.888C32.284 14.904 32.372 14.924 32.46 14.948C32.596 14.996 32.708 15.068 32.796 15.164C32.876 15.268 32.916 15.384 32.916 15.512C32.916 15.552 32.916 15.6 32.916 15.656C32.916 15.704 32.908 15.748 32.892 15.788C32.876 15.876 32.824 15.956 32.736 16.028C32.696 16.084 32.62 16.124 32.508 16.148C32.404 16.18 32.3 16.2 32.196 16.208C32.084 16.232 31.972 16.244 31.86 16.244H31.296L29.076 16.256L29.052 18.608L31.44 18.632H32.004C32.068 18.632 32.128 18.632 32.184 18.632C32.24 18.632 32.292 18.636 32.34 18.644C32.404 18.66 32.46 18.672 32.508 18.68C32.564 18.68 32.616 18.688 32.664 18.704C32.76 18.736 32.84 18.78 32.904 18.836C32.984 18.916 33.036 19 33.06 19.088C33.068 19.128 33.072 19.172 33.072 19.22C33.08 19.26 33.08 19.304 33.072 19.352C33.072 19.48 33.032 19.596 32.952 19.7C32.856 19.812 32.744 19.884 32.616 19.916C32.448 19.988 32.264 20.024 32.064 20.024C31.976 20.032 31.884 20.036 31.788 20.036C31.692 20.036 31.6 20.04 31.512 20.048H31.44C30.816 20.064 30.168 20.064 29.496 20.048C29.336 20.048 29.208 20.044 29.112 20.036C29.016 20.036 28.928 20.036 28.848 20.036C28.776 20.036 28.7 20.036 28.62 20.036C28.54 20.036 28.436 20.036 28.308 20.036C28.124 20.052 27.972 20.02 27.852 19.94C27.764 19.884 27.696 19.808 27.648 19.712C27.624 19.688 27.612 19.664 27.612 19.64C27.604 19.624 27.596 19.612 27.588 19.604C27.58 19.596 27.572 19.584 27.564 19.568C27.548 19.528 27.536 19.488 27.528 19.448C27.52 19.4 27.516 19.356 27.516 19.316C27.508 19.276 27.5 19.236 27.492 19.196C27.492 19.156 27.488 19.116 27.48 19.076V18.884C27.48 18.852 27.48 18.82 27.48 18.788C27.488 18.756 27.492 18.724 27.492 18.692V17.756L27.516 16.028V14.432C27.516 14.144 27.516 13.888 27.516 13.664C27.524 13.44 27.532 13.196 27.54 12.932V12.872C27.548 12.784 27.552 12.704 27.552 12.632C27.56 12.552 27.564 12.472 27.564 12.392C27.572 12.232 27.616 12.076 27.696 11.924C27.728 11.86 27.76 11.804 27.792 11.756C27.832 11.708 27.884 11.668 27.948 11.636C28.068 11.564 28.192 11.528 28.32 11.528C28.384 11.528 28.432 11.532 28.464 11.54V11.528C28.608 11.528 28.724 11.528 28.812 11.528C28.9 11.528 28.984 11.528 29.064 11.528C29.152 11.528 29.244 11.528 29.34 11.528C29.436 11.52 29.568 11.516 29.736 11.516C30.056 11.508 30.36 11.504 30.648 11.504C30.936 11.504 31.232 11.508 31.536 11.516H31.584C31.672 11.524 31.764 11.528 31.86 11.528C31.956 11.528 32.048 11.532 32.136 11.54C32.224 11.54 32.312 11.552 32.4 11.576C32.488 11.592 32.576 11.616 32.664 11.648C32.8 11.688 32.912 11.756 33 11.852C33.072 11.964 33.108 12.076 33.108 12.188C33.108 12.236 33.108 12.284 33.108 12.332C33.108 12.372 33.1 12.412 33.084 12.452C33.076 12.532 33.028 12.616 32.94 12.704C32.908 12.72 32.872 12.74 32.832 12.764C32.8 12.788 32.76 12.808 32.712 12.824C32.664 12.84 32.612 12.852 32.556 12.86C32.508 12.86 32.46 12.864 32.412 12.872C32.348 12.888 32.288 12.896 32.232 12.896C32.184 12.896 32.128 12.896 32.064 12.896H31.524L29.124 12.908V12.944Z" fill="white"/>
</svg>
