<svg width="61" height="48" viewBox="0 0 61 48" fill="none" xmlns="http://www.w3.org/2000/svg">
<path fill-rule="evenodd" clip-rule="evenodd" d="M15.5 15C15.5 10.3056 19.3056 6.5 24 6.5C28.6944 6.5 32.5 10.3056 32.5 15C32.5 19.6944 28.6944 23.5 24 23.5C19.3056 23.5 15.5 19.6944 15.5 15Z" fill="#19191B"/>
<path d="M16 26.5C11.8579 26.5 8.5 29.8579 8.5 34V36.3766C8.5 37.883 9.59177 39.1675 11.0785 39.4102C19.6362 40.8074 28.3638 40.8074 36.9215 39.4102C38.4082 39.1675 39.5 37.883 39.5 36.3766V34C39.5 29.8579 36.1421 26.5 32 26.5H31.3183C30.9493 26.5 30.5826 26.5583 30.2319 26.6729L28.5008 27.2381C25.5763 28.1931 22.4237 28.1931 19.4992 27.2381L17.7681 26.6729C17.4174 26.5583 17.0507 26.5 16.6817 26.5H16Z" fill="#19191B"/>
<path fill-rule="evenodd" clip-rule="evenodd" d="M33.9167 18.5001C33.9167 14.5881 37.088 11.4167 41 11.4167C44.9121 11.4167 48.0834 14.5881 48.0834 18.5001C48.0834 22.4121 44.9121 25.5834 41 25.5834C37.088 25.5834 33.9167 22.4121 33.9167 18.5001Z" fill="#19191B"/>
<path d="M34.3334 28.0834C30.8816 28.0834 28.0834 30.8816 28.0834 34.3334V36.3139C28.0834 37.5693 28.9932 38.6397 30.2322 38.8419C37.3635 40.0063 44.6365 40.0063 51.7679 38.8419C53.0069 38.6397 53.9167 37.5693 53.9167 36.3139V34.3334C53.9167 30.8816 51.1185 28.0834 47.6667 28.0834H47.0986C46.7911 28.0834 46.4856 28.132 46.1933 28.2275L44.7507 28.6985C42.3136 29.4943 39.6865 29.4943 37.2494 28.6985L35.8068 28.2275C35.5145 28.132 35.209 28.0834 34.9015 28.0834H34.3334Z" fill="#19191B"/>
</svg>
