<svg width="62" height="48" viewBox="0 0 62 48" fill="none" xmlns="http://www.w3.org/2000/svg">
<path fill-rule="evenodd" clip-rule="evenodd" d="M15.5 15C15.5 10.3056 19.3056 6.5 24 6.5C28.6944 6.5 32.5 10.3056 32.5 15C32.5 19.6944 28.6944 23.5 24 23.5C19.3056 23.5 15.5 19.6944 15.5 15ZM24 9.5C20.9624 9.5 18.5 11.9624 18.5 15C18.5 18.0376 20.9624 20.5 24 20.5C27.0376 20.5 29.5 18.0376 29.5 15C29.5 11.9624 27.0376 9.5 24 9.5Z" fill="#19191B"/>
<path fill-rule="evenodd" clip-rule="evenodd" d="M16 29.5C13.5147 29.5 11.5 31.5147 11.5 34V36.3766C11.5 36.4128 11.5262 36.4436 11.5619 36.4494C19.7994 37.7943 28.2006 37.7943 36.4381 36.4494C36.4738 36.4436 36.5 36.4128 36.5 36.3766V34C36.5 31.5147 34.4853 29.5 32 29.5H31.3183C31.2656 29.5 31.2132 29.5083 31.1631 29.5247L29.432 30.0899C25.9024 31.2425 22.0976 31.2425 18.568 30.0899L16.8369 29.5247C16.7868 29.5083 16.7344 29.5 16.6817 29.5H16ZM8.5 34C8.5 29.8579 11.8579 26.5 16 26.5H16.6817C17.0507 26.5 17.4174 26.5583 17.7681 26.6729L19.4992 27.2381C22.4237 28.1931 25.5763 28.1931 28.5008 27.2381L30.2319 26.6729C30.5826 26.5583 30.9493 26.5 31.3183 26.5H32C36.1421 26.5 39.5 29.8579 39.5 34V36.3766C39.5 37.883 38.4082 39.1675 36.9215 39.4102C28.3638 40.8074 19.6362 40.8074 11.0785 39.4102C9.59177 39.1675 8.5 37.883 8.5 36.3766V34Z" fill="#19191B"/>
<path fill-rule="evenodd" clip-rule="evenodd" d="M34.9167 18.5001C34.9167 14.5881 38.088 11.4167 42 11.4167C45.9121 11.4167 49.0834 14.5881 49.0834 18.5001C49.0834 22.4121 45.9121 25.5834 42 25.5834C38.088 25.5834 34.9167 22.4121 34.9167 18.5001ZM42 13.9167C39.4687 13.9167 37.4167 15.9688 37.4167 18.5001C37.4167 21.0314 39.4687 23.0834 42 23.0834C44.5313 23.0834 46.5834 21.0314 46.5834 18.5001C46.5834 15.9688 44.5313 13.9167 42 13.9167Z" fill="#19191B"/>
<path fill-rule="evenodd" clip-rule="evenodd" d="M35.3334 30.5834H35.9015C35.9454 30.5834 35.9891 30.5904 36.0308 30.604L37.4733 31.075C40.4147 32.0355 43.5854 32.0355 46.5267 31.075L47.9693 30.604C48.011 30.5904 48.0547 30.5834 48.0986 30.5834H48.6667C50.7378 30.5834 52.4167 32.2623 52.4167 34.3334V36.3139C52.4167 36.344 52.3949 36.3698 52.3651 36.3746C46.7294 37.2947 41.0019 37.4594 35.3334 36.8688C35.8654 37.8489 35.8931 38.4007 35.3334 39.3818C41.1376 39.9637 46.9991 39.7838 52.7679 38.8419C54.0069 38.6397 54.9167 37.5693 54.9167 36.3139V34.3334C54.9167 30.8816 52.1185 28.0834 48.6667 28.0834H48.0986C47.7911 28.0834 47.4856 28.132 47.1933 28.2275L45.7507 28.6985C43.3136 29.4943 40.6865 29.4943 38.2494 28.6985L36.8068 28.2275C36.5145 28.132 36.209 28.0834 35.9015 28.0834H35.3334C35.7498 29.1656 35.7897 29.722 35.3334 30.5834Z" fill="#19191B"/>
</svg>
