<svg width="62" height="62" viewBox="0 0 62 62" fill="none" xmlns="http://www.w3.org/2000/svg">
<path fill-rule="evenodd" clip-rule="evenodd" d="M15.5 15C15.5 10.3056 19.3056 6.5 24 6.5C28.6944 6.5 32.5 10.3056 32.5 15C32.5 19.6944 28.6944 23.5 24 23.5C19.3056 23.5 15.5 19.6944 15.5 15ZM24 9.5C20.9624 9.5 18.5 11.9624 18.5 15C18.5 18.0376 20.9624 20.5 24 20.5C27.0376 20.5 29.5 18.0376 29.5 15C29.5 11.9624 27.0376 9.5 24 9.5Z" fill="white"/>
<path fill-rule="evenodd" clip-rule="evenodd" d="M16 29.5C13.5147 29.5 11.5 31.5147 11.5 34V36.3766C11.5 36.4128 11.5262 36.4436 11.5619 36.4494C19.7994 37.7943 28.2006 37.7943 36.4381 36.4494C36.4738 36.4436 36.5 36.4128 36.5 36.3766V34C36.5 31.5147 34.4853 29.5 32 29.5H31.3183C31.2656 29.5 31.2132 29.5083 31.1631 29.5247L29.432 30.0899C25.9024 31.2425 22.0976 31.2425 18.568 30.0899L16.8369 29.5247C16.7868 29.5083 16.7344 29.5 16.6817 29.5H16ZM8.5 34C8.5 29.8579 11.8579 26.5 16 26.5H16.6817C17.0507 26.5 17.4174 26.5583 17.7681 26.6729L19.4992 27.2381C22.4237 28.1931 25.5763 28.1931 28.5008 27.2381L30.2319 26.6729C30.5826 26.5583 30.9493 26.5 31.3183 26.5H32C36.1421 26.5 39.5 29.8579 39.5 34V36.3766C39.5 37.883 38.4082 39.1675 36.9215 39.4102C28.3638 40.8074 19.6362 40.8074 11.0785 39.4102C9.59177 39.1675 8.5 37.883 8.5 36.3766V34Z" fill="white"/>
<path fill-rule="evenodd" clip-rule="evenodd" d="M34.9167 18.5001C34.9167 14.5881 38.088 11.4167 42 11.4167C45.9121 11.4167 49.0834 14.5881 49.0834 18.5001C49.0834 22.4121 45.9121 25.5834 42 25.5834C38.088 25.5834 34.9167 22.4121 34.9167 18.5001ZM42 13.9167C39.4687 13.9167 37.4167 15.9688 37.4167 18.5001C37.4167 21.0314 39.4687 23.0834 42 23.0834C44.5313 23.0834 46.5834 21.0314 46.5834 18.5001C46.5834 15.9688 44.5313 13.9167 42 13.9167Z" fill="white"/>
<path fill-rule="evenodd" clip-rule="evenodd" d="M35.3334 30.5834H35.9015C35.9454 30.5834 35.9891 30.5904 36.0308 30.604L37.4733 31.075C40.4147 32.0355 43.5854 32.0355 46.5267 31.075L47.9693 30.604C48.011 30.5904 48.0547 30.5834 48.0986 30.5834H48.6667C50.7378 30.5834 52.4167 32.2623 52.4167 34.3334V36.3139C52.4167 36.344 52.3949 36.3698 52.3651 36.3746C46.7294 37.2947 41.0019 37.4594 35.3334 36.8688C35.8654 37.8489 35.8931 38.4007 35.3334 39.3818C41.1376 39.9637 46.9991 39.7838 52.7679 38.8419C54.0069 38.6397 54.9167 37.5693 54.9167 36.3139V34.3334C54.9167 30.8816 52.1185 28.0834 48.6667 28.0834H48.0986C47.7911 28.0834 47.4856 28.132 47.1933 28.2275L45.7507 28.6985C43.3136 29.4943 40.6865 29.4943 38.2494 28.6985L36.8068 28.2275C36.5145 28.132 36.209 28.0834 35.9015 28.0834H35.3334C35.7498 29.1656 35.7897 29.722 35.3334 30.5834Z" fill="white"/>
<path d="M12.3 54.75C12.1867 54.79 12.1067 54.8067 12.06 54.8C12.02 54.7867 11.9833 54.75 11.95 54.69L11.6 54C11.5333 53.8733 11.57 53.78 11.71 53.72C12.0167 53.58 12.32 53.42 12.62 53.24C12.9267 53.06 13.21 52.8733 13.47 52.68C13.7367 52.48 13.9733 52.28 14.18 52.08C14.3867 51.88 14.55 51.6867 14.67 51.5C14.7367 51.4067 14.7633 51.34 14.75 51.3C14.7433 51.26 14.6967 51.24 14.61 51.24H12.25C12.1233 51.24 12.06 51.17 12.06 51.03V50.36C12.06 50.22 12.1267 50.15 12.26 50.15H15.71C16.1167 50.15 16.3667 50.2467 16.46 50.44C16.5533 50.6333 16.5333 50.9 16.4 51.24C16.24 51.6333 15.98 52.03 15.62 52.43C15.88 52.6367 16.1567 52.82 16.45 52.98C16.7433 53.14 16.99 53.2667 17.19 53.36C17.2633 53.3933 17.3 53.4333 17.3 53.48C17.3067 53.5267 17.2933 53.58 17.26 53.64L16.89 54.33C16.8567 54.3833 16.8167 54.4133 16.77 54.42C16.73 54.4267 16.6733 54.4133 16.6 54.38C16.4933 54.3333 16.3667 54.2733 16.22 54.2C16.0733 54.1267 15.9167 54.0433 15.75 53.95C15.59 53.85 15.4233 53.7433 15.25 53.63C15.0833 53.51 14.9233 53.3867 14.77 53.26C14.39 53.58 13.9867 53.87 13.56 54.13C13.14 54.39 12.72 54.5967 12.3 54.75ZM19.02 55.41H18C17.9267 55.41 17.8767 55.3967 17.85 55.37C17.8233 55.3433 17.81 55.2933 17.81 55.22V48.67C17.81 48.5433 17.8733 48.48 18 48.48H19.02C19.14 48.48 19.2 48.5433 19.2 48.67V55.22C19.2 55.2933 19.1867 55.3433 19.16 55.37C19.14 55.3967 19.0933 55.41 19.02 55.41ZM19.34 57.91H14.01C13.87 57.91 13.7533 57.8967 13.66 57.87C13.5733 57.85 13.5033 57.8133 13.45 57.76C13.4033 57.7067 13.37 57.6333 13.35 57.54C13.33 57.4467 13.32 57.33 13.32 57.19V55.21C13.32 55.07 13.3867 55 13.52 55H14.51C14.6433 55 14.71 55.07 14.71 55.21V56.62C14.71 56.72 14.7633 56.77 14.87 56.77H19.34C19.3933 56.77 19.44 56.7833 19.48 56.81C19.52 56.83 19.54 56.8767 19.54 56.95V57.73C19.54 57.8233 19.52 57.8767 19.48 57.89C19.44 57.9033 19.3933 57.91 19.34 57.91ZM15.49 49.71H13.07C13.0167 49.71 12.9667 49.6967 12.92 49.67C12.88 49.6433 12.86 49.5867 12.86 49.5V48.88C12.86 48.7933 12.88 48.7367 12.92 48.71C12.9667 48.6833 13.0167 48.67 13.07 48.67H15.49C15.6367 48.67 15.71 48.7433 15.71 48.89V49.49C15.71 49.6367 15.6367 49.71 15.49 49.71ZM29.3843 53.98H25.6743V57.8C25.6743 57.9333 25.6076 58 25.4743 58H24.4843C24.3443 58 24.2743 57.9333 24.2743 57.8V53.98H20.7943C20.7076 53.98 20.651 53.9633 20.6243 53.93C20.6043 53.89 20.5943 53.8333 20.5943 53.76V53.07C20.5943 52.9967 20.6043 52.9433 20.6243 52.91C20.651 52.87 20.7076 52.85 20.7943 52.85H26.6443C26.7376 52.4633 26.8076 52.04 26.8543 51.58C26.9076 51.1133 26.9343 50.6367 26.9343 50.15C26.9343 50.09 26.9243 50.0367 26.9043 49.99C26.8843 49.9433 26.8243 49.92 26.7243 49.92H21.9943C21.941 49.92 21.891 49.9133 21.8443 49.9C21.7976 49.88 21.7743 49.8267 21.7743 49.74V48.95C21.7743 48.87 21.7943 48.8233 21.8343 48.81C21.881 48.79 21.9343 48.78 21.9943 48.78H27.6043C27.8576 48.78 28.0376 48.8367 28.1443 48.95C28.251 49.0567 28.3043 49.25 28.3043 49.53C28.3043 50.09 28.2776 50.6567 28.2243 51.23C28.171 51.8033 28.0876 52.3433 27.9743 52.85H29.3843C29.5243 52.85 29.5943 52.9233 29.5943 53.07V53.76C29.5943 53.9067 29.5243 53.98 29.3843 53.98ZM41.5813 54.09H33.0013C32.908 54.09 32.8513 54.0767 32.8313 54.05C32.8113 54.0167 32.8013 53.96 32.8013 53.88V53.16C32.8013 53.0867 32.8147 53.0367 32.8413 53.01C32.868 52.9767 32.9213 52.96 33.0013 52.96H36.6013V52.12H34.9113C34.758 52.12 34.6347 52.1133 34.5413 52.1C34.448 52.08 34.3747 52.0467 34.3213 52C34.268 51.9467 34.2313 51.8733 34.2113 51.78C34.1913 51.6867 34.1813 51.5667 34.1813 51.42V49.34C34.1813 49.2 34.1913 49.0867 34.2113 49C34.238 48.9133 34.278 48.8467 34.3313 48.8C34.3913 48.7533 34.4647 48.7233 34.5513 48.71C34.638 48.69 34.7413 48.68 34.8613 48.68H39.7213C39.8613 48.68 39.9747 48.6867 40.0613 48.7C40.148 48.7133 40.2147 48.7433 40.2613 48.79C40.3147 48.8367 40.3513 48.9033 40.3713 48.99C40.3913 49.0767 40.4013 49.1933 40.4013 49.34V51.42C40.4013 51.5667 40.3913 51.6867 40.3713 51.78C40.3513 51.8667 40.3147 51.9367 40.2613 51.99C40.2147 52.0367 40.148 52.07 40.0613 52.09C39.9747 52.11 39.8613 52.12 39.7213 52.12H37.9913V52.96H41.5813C41.6413 52.96 41.6913 52.9733 41.7313 53C41.7713 53.0267 41.7913 53.08 41.7913 53.16V53.88C41.7913 54.02 41.7213 54.09 41.5813 54.09ZM40.2313 58.05H39.2513C39.1047 58.05 39.0313 57.9833 39.0313 57.85V55.99C39.0313 55.89 38.9847 55.84 38.8913 55.84H34.1913C34.138 55.84 34.0913 55.83 34.0513 55.81C34.0113 55.79 33.9913 55.7433 33.9913 55.67V54.89C33.9913 54.7967 34.0113 54.7433 34.0513 54.73C34.0913 54.71 34.138 54.7 34.1913 54.7H39.7213C39.868 54.7 39.9847 54.7133 40.0713 54.74C40.1647 54.76 40.2347 54.8 40.2813 54.86C40.3347 54.92 40.3713 55 40.3913 55.1C40.4113 55.1933 40.4213 55.31 40.4213 55.45V57.85C40.4213 57.9833 40.358 58.05 40.2313 58.05ZM39.0213 50C39.0213 49.9133 39.0147 49.86 39.0013 49.84C38.988 49.8133 38.9413 49.8 38.8613 49.8H35.7513C35.6647 49.8 35.6113 49.81 35.5913 49.83C35.5713 49.85 35.5613 49.9067 35.5613 50V50.81C35.5613 50.9033 35.5713 50.96 35.5913 50.98C35.6113 51 35.6647 51.01 35.7513 51.01H38.8613C38.9413 51.01 38.988 51 39.0013 50.98C39.0147 50.9533 39.0213 50.8967 39.0213 50.81V50ZM50.9856 54.42H42.4056C42.3123 54.42 42.2556 54.4033 42.2356 54.37C42.2156 54.3367 42.2056 54.28 42.2056 54.2V53.52C42.2056 53.4467 42.219 53.3967 42.2456 53.37C42.2723 53.3367 42.3256 53.32 42.4056 53.32H46.0056V52.68H44.3256C44.0323 52.68 43.8356 52.6267 43.7356 52.52C43.6423 52.4133 43.5956 52.2333 43.5956 51.98V50.79C43.5956 50.6633 43.6056 50.56 43.6256 50.48C43.6456 50.3933 43.679 50.3267 43.7256 50.28C43.779 50.2267 43.849 50.19 43.9356 50.17C44.029 50.1433 44.149 50.13 44.2956 50.13H48.3656C48.4256 50.13 48.4556 50.0933 48.4556 50.02V49.81C48.4556 49.73 48.4223 49.69 48.3556 49.69H43.8456C43.7123 49.69 43.6456 49.6233 43.6456 49.49V48.81C43.6456 48.6833 43.7123 48.62 43.8456 48.62H49.0956C49.2423 48.62 49.3623 48.63 49.4556 48.65C49.5556 48.67 49.629 48.7067 49.6756 48.76C49.729 48.8067 49.7656 48.8733 49.7856 48.96C49.8056 49.04 49.8156 49.1467 49.8156 49.28V50.48C49.8156 50.6133 49.8056 50.7233 49.7856 50.81C49.7656 50.8967 49.729 50.9667 49.6756 51.02C49.629 51.0667 49.5556 51.1 49.4556 51.12C49.3623 51.14 49.2423 51.15 49.0956 51.15H45.0656C44.999 51.15 44.9656 51.1833 44.9656 51.25V51.5C44.9656 51.5733 45.0023 51.61 45.0756 51.61H49.8056C49.879 51.61 49.9323 51.62 49.9656 51.64C49.999 51.66 50.0156 51.7133 50.0156 51.8V52.48C50.0156 52.6133 49.949 52.68 49.8156 52.68H47.3956V53.32H50.9856C51.0456 53.32 51.0956 53.3333 51.1356 53.36C51.1756 53.3867 51.1956 53.44 51.1956 53.52V54.2C51.1956 54.3467 51.1256 54.42 50.9856 54.42ZM49.6356 58.15H48.6556C48.509 58.15 48.4356 58.0833 48.4356 57.95V56.23C48.4356 56.13 48.389 56.08 48.2956 56.08H43.5956C43.5423 56.08 43.4956 56.07 43.4556 56.05C43.4156 56.03 43.3956 55.9833 43.3956 55.91V55.15C43.3956 55.0567 43.4156 55.0033 43.4556 54.99C43.4956 54.97 43.5423 54.96 43.5956 54.96H49.1256C49.2723 54.96 49.389 54.9733 49.4756 55C49.569 55.02 49.639 55.06 49.6856 55.12C49.739 55.18 49.7756 55.26 49.7956 55.36C49.8156 55.4533 49.8256 55.57 49.8256 55.71V57.95C49.8256 58.0833 49.7623 58.15 49.6356 58.15Z" fill="white"/>
</svg>
