<svg width="62" height="61" viewBox="0 0 62 61" fill="none" xmlns="http://www.w3.org/2000/svg">
<path d="M18.76 46.64H20.1V53.41H18.76V46.64ZM13.93 54.67H20.33V55.73H13.93V54.67ZM13.93 52.81H15.26V55.29H13.93V52.81ZM14.66 48.46H15.75V48.79C15.75 50.45 14.9 51.92 13.11 52.44L12.48 51.4C14 50.96 14.66 49.87 14.66 48.79V48.46ZM14.91 48.46H15.99V48.79C15.99 49.8 16.66 50.83 18.18 51.25L17.56 52.29C15.76 51.79 14.91 50.38 14.91 48.79V48.46ZM12.79 47.7H17.85V48.74H12.79V47.7ZM14.66 46.68H15.99V48.13H14.66V46.68ZM22.5592 47.17H28.3692V48.22H22.5592V47.17ZM21.6092 51.11H29.9792V52.18H21.6092V51.11ZM25.0792 51.86H26.4192V55.9H25.0792V51.86ZM27.6892 47.17H28.9992V47.99C28.9992 48.99 28.9992 50.11 28.6392 51.75L27.3292 51.6C27.6892 50.05 27.6892 48.95 27.6892 47.99V47.17ZM34.6116 46.99H40.9016V50.27H34.6116V46.99ZM39.5916 48.03H35.9116V49.23H39.5916V48.03ZM33.5816 51.14H41.9516V52.19H33.5816V51.14ZM37.0916 50.03H38.4216V51.44H37.0916V50.03ZM34.5116 52.86H40.9416V55.89H39.6116V53.91H34.5116V52.86ZM42.7809 51.59H51.1709V52.65H42.7809V51.59ZM43.8109 46.81H50.1509V49.32H45.1409V50.32H43.8209V48.38H48.8409V47.82H43.8109V46.81ZM43.8209 49.92H50.3309V50.93H43.8209V49.92ZM46.3109 50.41H47.6409V52.17H46.3109V50.41ZM43.7109 53.17H50.2109V55.86H48.8809V54.22H43.7109V53.17Z" fill="white"/>
<path fill-rule="evenodd" clip-rule="evenodd" d="M15.7542 15C15.7542 10.3056 19.6221 6.5 24.3935 6.5C29.1649 6.5 33.0328 10.3056 33.0328 15C33.0328 19.6944 29.1649 23.5 24.3935 23.5C19.6221 23.5 15.7542 19.6944 15.7542 15Z" fill="white"/>
<path d="M16.2624 26.5C12.0523 26.5 8.6394 29.8579 8.6394 34V36.3766C8.6394 37.883 9.74907 39.1675 11.2602 39.4102C19.9582 40.8074 28.8288 40.8074 37.5268 39.4102C39.0379 39.1675 40.1476 37.883 40.1476 36.3766V34C40.1476 29.8579 36.7347 26.5 32.5246 26.5H31.8317C31.4567 26.5 31.084 26.5583 30.7275 26.6729L28.9681 27.2381C25.9956 28.1931 22.7914 28.1931 19.8189 27.2381L18.0595 26.6729C17.703 26.5583 17.3303 26.5 16.9553 26.5H16.2624Z" fill="white"/>
<path fill-rule="evenodd" clip-rule="evenodd" d="M34.4727 18.5001C34.4727 14.5881 37.696 11.4167 41.6721 11.4167C45.6483 11.4167 48.8716 14.5881 48.8716 18.5001C48.8716 22.4121 45.6483 25.5834 41.6721 25.5834C37.696 25.5834 34.4727 22.4121 34.4727 18.5001Z" fill="white"/>
<path d="M34.8962 28.0834C31.3878 28.0834 28.5437 30.8816 28.5437 34.3334V36.3139C28.5437 37.5693 29.4684 38.6397 30.7277 38.8419C37.976 40.0063 45.3682 40.0063 52.6165 38.8419C53.8758 38.6397 54.8005 37.5693 54.8005 36.3139V34.3334C54.8005 30.8816 51.9564 28.0834 48.4481 28.0834H47.8706C47.5581 28.0834 47.2476 28.132 46.9505 28.2275L45.4843 28.6985C43.0072 29.4943 40.337 29.4943 37.8599 28.6985L36.3938 28.2275C36.0967 28.132 35.7861 28.0834 35.4736 28.0834H34.8962Z" fill="white"/>
</svg>
