<svg width="15" height="57" viewBox="0 0 15 57" fill="none" xmlns="http://www.w3.org/2000/svg">
<path d="M0.824 0.359997H13.88L11.512 36.712H3.192L0.824 0.359997ZM7.352 56.808C5.176 56.808 3.42667 56.1253 2.104 54.76C0.781334 53.4373 0.12 51.752 0.12 49.704C0.12 47.6133 0.781334 45.8853 2.104 44.52C3.42667 43.1547 5.176 42.472 7.352 42.472C9.48533 42.472 11.2133 43.1547 12.536 44.52C13.9013 45.8853 14.584 47.6133 14.584 49.704C14.584 51.752 13.9013 53.4373 12.536 54.76C11.2133 56.1253 9.48533 56.808 7.352 56.808Z" fill="#FF0000"/>
</svg>
