<svg width="20" height="20" viewBox="0 0 20 20" fill="none" xmlns="http://www.w3.org/2000/svg">
<g clip-path="url(#clip0_697_10355)">
<path d="M9.5 15.3333H11.1667V13.6667H9.5V15.3333ZM10.3333 2C5.73333 2 2 5.73333 2 10.3333C2 14.9333 5.73333 18.6667 10.3333 18.6667C14.9333 18.6667 18.6667 14.9333 18.6667 10.3333C18.6667 5.73333 14.9333 2 10.3333 2ZM10.3333 17C6.65833 17 3.66667 14.0083 3.66667 10.3333C3.66667 6.65833 6.65833 3.66667 10.3333 3.66667C14.0083 3.66667 17 6.65833 17 10.3333C17 14.0083 14.0083 17 10.3333 17ZM10.3333 5.33333C8.49167 5.33333 7 6.825 7 8.66667H8.66667C8.66667 7.75 9.41667 7 10.3333 7C11.25 7 12 7.75 12 8.66667C12 10.3333 9.5 10.125 9.5 12.8333H11.1667C11.1667 10.9583 13.6667 10.75 13.6667 8.66667C13.6667 6.825 12.175 5.33333 10.3333 5.33333Z" fill="white"/>
</g>
<defs>
<clipPath id="clip0_697_10355">
<rect width="20" height="20" fill="white"/>
</clipPath>
</defs>
</svg>
