<svg width="48" height="48" viewBox="0 0 48 48" fill="none" xmlns="http://www.w3.org/2000/svg">
<path fill-rule="evenodd" clip-rule="evenodd" d="M18.5086 8.0884C21.4104 5.30387 25.9921 5.30387 28.894 8.0884L38.1469 16.9671C38.8281 17.6207 39.2862 18.472 39.4565 19.4006C40.6255 25.7758 40.7118 32.3025 39.7117 38.7064L39.3502 41.0214C39.2007 41.9787 38.3761 42.6845 37.4072 42.6845H29.0697C28.2413 42.6845 27.5697 42.013 27.5697 41.1845V28.7619H19.8329V41.1845C19.8329 42.013 19.1613 42.6845 18.3329 42.6845H9.99542C9.02645 42.6845 8.20188 41.9787 8.05237 41.0214L7.69085 38.7064C6.69075 32.3025 6.77704 25.7758 7.9461 19.4006C8.11637 18.472 8.57454 17.6207 9.25568 16.9671L18.5086 8.0884Z" fill="#19191B"/>
</svg>
