<svg width="48" height="61" viewBox="0 0 48 61" fill="none" xmlns="http://www.w3.org/2000/svg">
<path d="M10.37 53.08H16.77V55.79H10.37V53.08ZM15.47 54.07H11.68V54.81H15.47V54.07ZM9.8 47.28H17.34V48.28H9.8V47.28ZM13.59 48.51C15.58 48.51 16.69 48.96 16.69 49.83C16.69 50.7 15.58 51.15 13.59 51.15C11.6 51.15 10.49 50.7 10.49 49.83C10.49 48.96 11.6 48.51 13.59 48.51ZM13.59 49.4C12.44 49.4 11.91 49.52 11.91 49.83C11.91 50.13 12.44 50.26 13.59 50.26C14.74 50.26 15.26 50.13 15.26 49.83C15.26 49.52 14.74 49.4 13.59 49.4ZM12.92 46.56H14.25V47.99H12.92V46.56ZM9.4 51.59H17.77V52.61H9.4V51.59ZM12.92 50.83H14.25V52.13H12.92V50.83ZM23.5224 52.11H24.8524V53.61H23.5224V52.11ZM27.4124 46.63H28.7524V55.89H27.4124V46.63ZM28.2824 50.39H29.9124V51.49H28.2824V50.39ZM21.4424 54.35L21.2824 53.28C22.8824 53.28 25.0824 53.27 26.9524 53.01L27.0524 53.97C25.1024 54.35 23.0024 54.35 21.4424 54.35ZM21.4524 47.65H26.9024V48.69H21.4524V47.65ZM24.1924 49.06C25.5124 49.06 26.4524 49.76 26.4524 50.79C26.4524 51.83 25.5124 52.53 24.1924 52.53C22.8624 52.53 21.9324 51.83 21.9324 50.79C21.9324 49.76 22.8624 49.06 24.1924 49.06ZM24.1924 50.06C23.5824 50.06 23.1924 50.32 23.1924 50.79C23.1924 51.27 23.5824 51.53 24.1924 51.53C24.7924 51.53 25.1924 51.27 25.1924 50.79C25.1924 50.32 24.7924 50.06 24.1924 50.06ZM23.5224 46.68H24.8524V48.43H23.5224V46.68ZM35.0516 48.08H37.3816V49.14H35.0516V48.08ZM35.0516 50.07H37.4216V51.13H35.0516V50.07ZM30.9616 47.37H35.3416V51.9H30.9616V47.37ZM34.0316 48.42H32.2716V50.86H34.0316V48.42ZM37.0016 46.64H38.3316V53.38H37.0016V46.64ZM32.2016 54.67H38.5316V55.73H32.2016V54.67ZM32.2016 52.74H33.5416V55.22H32.2016V52.74Z" fill="white"/>
<path fill-rule="evenodd" clip-rule="evenodd" d="M18.5086 8.0884C21.4104 5.30387 25.9921 5.30387 28.894 8.0884L38.1469 16.9671C38.8281 17.6207 39.2862 18.472 39.4565 19.4006C40.6255 25.7758 40.7118 32.3025 39.7117 38.7064L39.3502 41.0214C39.2007 41.9787 38.3761 42.6845 37.4072 42.6845H29.0697C28.2413 42.6845 27.5697 42.013 27.5697 41.1845V28.7619H19.8329V41.1845C19.8329 42.013 19.1613 42.6845 18.3329 42.6845H9.99542C9.02645 42.6845 8.20188 41.9787 8.05237 41.0214L7.69085 38.7064C6.69075 32.3025 6.77704 25.7758 7.9461 19.4006C8.11637 18.472 8.57454 17.6207 9.25568 16.9671L18.5086 8.0884Z" fill="white"/>
</svg>
