<svg width="48" height="48" viewBox="0 0 48 48" fill="none" xmlns="http://www.w3.org/2000/svg">
<path fill-rule="evenodd" clip-rule="evenodd" d="M27.1156 11.0685C25.3745 9.39775 22.6255 9.39775 20.8844 11.0685L11.6315 19.9471C11.4048 20.1647 11.2523 20.448 11.1956 20.7571C10.0873 26.8008 10.0055 32.9881 10.9536 39.059L11.1787 40.5H17.1316V28.0773C17.1316 27.2489 17.8032 26.5773 18.6316 26.5773H29.3684C30.1968 26.5773 30.8684 27.2489 30.8684 28.0773V40.5H36.8213L37.0464 39.059C37.9945 32.9881 37.9127 26.8008 36.8044 20.7571C36.7477 20.448 36.5952 20.1647 36.3685 19.9471L27.1156 11.0685ZM18.8073 8.90383C21.7092 6.1193 26.2909 6.1193 29.1927 8.90383L38.4456 17.7825C39.1268 18.4361 39.5849 19.2875 39.7552 20.216C40.9243 26.5912 41.0105 33.1179 40.0105 39.5219L39.6489 41.8368C39.4994 42.7942 38.6748 43.5 37.7059 43.5H29.3684C28.54 43.5 27.8684 42.8284 27.8684 42V29.5773H20.1316V42C20.1316 42.8284 19.46 43.5 18.6316 43.5H10.2941C9.32516 43.5 8.50059 42.7942 8.35108 41.8368L7.98955 39.5218C6.98946 33.1179 7.07575 26.5912 8.24481 20.216C8.41508 19.2875 8.87324 18.4361 9.55438 17.7825L18.8073 8.90383Z" fill="white"/>
</svg>
