<svg width="48" height="62" viewBox="0 0 48 62" fill="none" xmlns="http://www.w3.org/2000/svg">
<path fill-rule="evenodd" clip-rule="evenodd" d="M27.1156 11.0685C25.3745 9.39775 22.6255 9.39775 20.8844 11.0685L11.6315 19.9471C11.4048 20.1647 11.2523 20.448 11.1956 20.7571C10.0873 26.8008 10.0055 32.9881 10.9536 39.059L11.1787 40.5H17.1316V28.0773C17.1316 27.2489 17.8032 26.5773 18.6316 26.5773H29.3684C30.1968 26.5773 30.8684 27.2489 30.8684 28.0773V40.5H36.8213L37.0464 39.059C37.9945 32.9881 37.9127 26.8008 36.8044 20.7571C36.7477 20.448 36.5952 20.1647 36.3685 19.9471L27.1156 11.0685ZM18.8073 8.90383C21.7092 6.1193 26.2909 6.1193 29.1927 8.90383L38.4456 17.7825C39.1268 18.4361 39.5849 19.2875 39.7552 20.216C40.9243 26.5912 41.0105 33.1179 40.0105 39.5219L39.6489 41.8368C39.4994 42.7942 38.6748 43.5 37.7059 43.5H29.3684C28.54 43.5 27.8684 42.8284 27.8684 42V29.5773H20.1316V42C20.1316 42.8284 19.46 43.5 18.6316 43.5H10.2941C9.32516 43.5 8.50059 42.7942 8.35108 41.8368L7.98955 39.5218C6.98946 33.1179 7.07575 26.5912 8.24481 20.216C8.41508 19.2875 8.87324 18.4361 9.55438 17.7825L18.8073 8.90383Z" fill="white"/>
<path d="M20.8844 11.0685C22.6255 9.39775 25.3745 9.39775 27.1156 11.0685L36.3685 19.9471C36.5952 20.1647 36.7477 20.448 36.8044 20.7571C37.9127 26.8008 37.9945 32.9881 37.0464 39.059L36.8213 40.5H30.8684V28.0773C30.8684 27.2489 30.1968 26.5773 29.3684 26.5773H18.6316C17.8032 26.5773 17.1316 27.2489 17.1316 28.0773V40.5H11.1787L10.9536 39.059C10.0055 32.9881 10.0873 26.8008 11.1956 20.7571C11.2523 20.448 11.4048 20.1647 11.6315 19.9471L20.8844 11.0685Z" fill="white"/>
<path d="M10.37 54.08H16.77V56.79H10.37V54.08ZM15.47 55.07H11.68V55.81H15.47V55.07ZM9.8 48.28H17.34V49.28H9.8V48.28ZM13.59 49.51C15.58 49.51 16.69 49.96 16.69 50.83C16.69 51.7 15.58 52.15 13.59 52.15C11.6 52.15 10.49 51.7 10.49 50.83C10.49 49.96 11.6 49.51 13.59 49.51ZM13.59 50.4C12.44 50.4 11.91 50.52 11.91 50.83C11.91 51.13 12.44 51.26 13.59 51.26C14.74 51.26 15.26 51.13 15.26 50.83C15.26 50.52 14.74 50.4 13.59 50.4ZM12.92 47.56H14.25V48.99H12.92V47.56ZM9.4 52.59H17.77V53.61H9.4V52.59ZM12.92 51.83H14.25V53.13H12.92V51.83ZM23.5224 53.11H24.8524V54.61H23.5224V53.11ZM27.4124 47.63H28.7524V56.89H27.4124V47.63ZM28.2824 51.39H29.9124V52.49H28.2824V51.39ZM21.4424 55.35L21.2824 54.28C22.8824 54.28 25.0824 54.27 26.9524 54.01L27.0524 54.97C25.1024 55.35 23.0024 55.35 21.4424 55.35ZM21.4524 48.65H26.9024V49.69H21.4524V48.65ZM24.1924 50.06C25.5124 50.06 26.4524 50.76 26.4524 51.79C26.4524 52.83 25.5124 53.53 24.1924 53.53C22.8624 53.53 21.9324 52.83 21.9324 51.79C21.9324 50.76 22.8624 50.06 24.1924 50.06ZM24.1924 51.06C23.5824 51.06 23.1924 51.32 23.1924 51.79C23.1924 52.27 23.5824 52.53 24.1924 52.53C24.7924 52.53 25.1924 52.27 25.1924 51.79C25.1924 51.32 24.7924 51.06 24.1924 51.06ZM23.5224 47.68H24.8524V49.43H23.5224V47.68ZM35.0516 49.08H37.3816V50.14H35.0516V49.08ZM35.0516 51.07H37.4216V52.13H35.0516V51.07ZM30.9616 48.37H35.3416V52.9H30.9616V48.37ZM34.0316 49.42H32.2716V51.86H34.0316V49.42ZM37.0016 47.64H38.3316V54.38H37.0016V47.64ZM32.2016 55.67H38.5316V56.73H32.2016V55.67ZM32.2016 53.74H33.5416V56.22H32.2016V53.74Z" fill="white"/>
</svg>
