<svg width="301" height="45" viewBox="0 0 301 45" fill="none" xmlns="http://www.w3.org/2000/svg">
<rect width="301" height="45" rx="5" fill="#FEE500"/>
<path d="M127.076 18.752H128.21C128.21 22.406 126.978 25.766 122.442 28.02L121.812 27.124C125.816 25.15 127.076 22.322 127.076 18.878V18.752ZM122.498 18.752H127.762V19.69H122.498V18.752ZM126.894 21.888V22.784L122.05 23.26L121.868 22.224L126.894 21.888ZM130.254 17.422H131.43V30.092H130.254V17.422ZM131.108 22.56H133.446V23.526H131.108V22.56ZM139.955 18.752H141.089C141.089 22.406 139.857 25.766 135.321 28.02L134.691 27.124C138.695 25.15 139.955 22.322 139.955 18.878V18.752ZM135.377 18.752H140.641V19.69H135.377V18.752ZM139.773 21.888V22.784L134.929 23.26L134.747 22.224L139.773 21.888ZM143.133 17.422H144.309V30.092H143.133V17.422ZM143.987 22.56H146.325V23.526H143.987V22.56ZM152.582 24.59H153.744V27.74H152.582V24.59ZM153.17 18.262C155.844 18.262 157.762 19.564 157.762 21.58C157.762 23.596 155.844 24.898 153.17 24.898C150.496 24.898 148.564 23.596 148.564 21.58C148.564 19.564 150.496 18.262 153.17 18.262ZM153.17 19.186C151.154 19.186 149.684 20.138 149.684 21.58C149.684 23.022 151.154 23.974 153.17 23.974C155.172 23.974 156.642 23.022 156.642 21.58C156.642 20.138 155.172 19.186 153.17 19.186ZM147.458 27.516H158.924V28.482H147.458V27.516ZM164.274 27.572H175.74V28.538H164.274V27.572ZM169.398 24.856H170.56V27.978H169.398V24.856ZM165.66 18.374H174.326V22.21H166.85V24.744H165.702V21.272H173.178V19.312H165.66V18.374ZM165.702 24.254H174.62V25.206H165.702V24.254ZM178.385 18.78H186.533V19.718H178.385V18.78ZM177.153 27.278H188.591V28.244H177.153V27.278ZM185.917 18.78H187.051V20.04C187.051 21.664 187.051 23.47 186.575 26.2L185.413 26.088C185.917 23.498 185.917 21.608 185.917 20.04V18.78ZM199.23 17.45H200.406V26.69H199.23V17.45ZM192.272 28.86H200.784V29.812H192.272V28.86ZM192.272 25.738H193.42V29.182H192.272V25.738ZM193.616 18.318C195.506 18.318 196.906 19.606 196.906 21.44C196.906 23.26 195.506 24.562 193.616 24.562C191.726 24.562 190.312 23.26 190.312 21.44C190.312 19.606 191.726 18.318 193.616 18.318ZM193.616 19.326C192.384 19.326 191.446 20.194 191.446 21.44C191.446 22.672 192.384 23.54 193.616 23.54C194.848 23.54 195.786 22.672 195.786 21.44C195.786 20.194 194.848 19.326 193.616 19.326Z" fill="black"/>
<path d="M19.6286 14.842C16.3371 16.3849 15 18.1334 15 21.0649C15 23.2763 15.2571 23.842 16.8514 25.5391C18.5486 27.3391 18.7029 27.6477 18.24 29.242C17.9829 30.1677 17.88 31.042 18.0343 31.1963C18.1371 31.3506 19.32 30.7334 20.6057 29.8591C21.9943 28.882 23.5371 28.2649 24.6171 28.2649C26.8286 28.2134 30.0686 26.722 31.7143 24.9734C32.6914 23.842 33 23.0191 33 21.0649C33 19.1106 32.6914 18.2877 31.7143 17.1563C28.7829 14.0191 23.5886 12.9906 19.6286 14.842Z" fill="black"/>
</svg>
