<svg width="20" height="40" viewBox="0 0 20 40" fill="none" xmlns="http://www.w3.org/2000/svg">
<path fill-rule="evenodd" clip-rule="evenodd" d="M20 25C20 32.7778 10 39.4444 10 39.4444C10 39.4444 0 32.7778 0 25C8.22968e-08 19.4772 4.47715 15 10 15C15.5228 15 20 19.4772 20 25Z" fill="#6938D3"/>
<path d="M10.8125 3.09091L10.706 10.9318H9.47017L9.36364 3.09091H10.8125ZM10.0881 14.0852C9.82528 14.0852 9.59979 13.9911 9.41158 13.8029C9.22337 13.6147 9.12926 13.3892 9.12926 13.1264C9.12926 12.8636 9.22337 12.6381 9.41158 12.4499C9.59979 12.2617 9.82528 12.1676 10.0881 12.1676C10.3509 12.1676 10.5763 12.2617 10.7646 12.4499C10.9528 12.6381 11.0469 12.8636 11.0469 13.1264C11.0469 13.3004 11.0025 13.4602 10.9137 13.6058C10.8285 13.7514 10.7131 13.8686 10.5675 13.9574C10.4254 14.0426 10.2656 14.0852 10.0881 14.0852Z" fill="#FF0000"/>
</svg>
