<svg width="46" height="50" viewBox="0 0 46 50" fill="none" xmlns="http://www.w3.org/2000/svg">
<path fill-rule="evenodd" clip-rule="evenodd" d="M36.1818 30.0909C36.1818 40.2727 23.0909 49 23.0909 49C23.0909 49 10 40.2727 10 30.0909C10 22.861 15.861 17 23.0909 17C30.3208 17 36.1818 22.861 36.1818 30.0909V30.0909Z" fill="#6938D3" stroke="#6938D3" stroke-width="2" stroke-linecap="round" stroke-linejoin="round"/>
<path d="M6.42 6.272C6.42 6.576 6.356 6.788 6.228 6.908C6.108 7.028 5.896 7.088 5.592 7.088H1.992C1.712 7.088 1.504 7.028 1.368 6.908C1.232 6.788 1.164 6.576 1.164 6.272V2.312C1.164 2.008 1.224 1.8 1.344 1.688C1.472 1.568 1.688 1.508 1.992 1.508H5.592C5.896 1.508 6.108 1.568 6.228 1.688C6.356 1.808 6.42 2.02 6.42 2.324V6.272ZM5.052 2.792C5.052 2.728 5.04 2.688 5.016 2.672C5 2.648 4.96 2.636 4.896 2.636H2.688C2.624 2.636 2.58 2.644 2.556 2.66C2.54 2.676 2.532 2.716 2.532 2.78V5.804C2.532 5.876 2.54 5.92 2.556 5.936C2.58 5.952 2.624 5.96 2.688 5.96H4.896C4.96 5.96 5 5.952 5.016 5.936C5.04 5.92 5.052 5.876 5.052 5.804V2.792ZM9.852 11.936C9.852 11.984 9.832 12.02 9.792 12.044C9.76 12.068 9.724 12.08 9.684 12.08H3.336C2.976 12.08 2.732 12.016 2.604 11.888C2.484 11.76 2.424 11.54 2.424 11.228V8.588C2.424 8.548 2.44 8.512 2.472 8.48C2.512 8.44 2.552 8.42 2.592 8.42H3.624C3.672 8.42 3.712 8.44 3.744 8.48C3.784 8.512 3.804 8.548 3.804 8.588V10.736C3.804 10.816 3.82 10.868 3.852 10.892C3.884 10.916 3.94 10.928 4.02 10.928H9.684C9.724 10.928 9.76 10.944 9.792 10.976C9.832 11.008 9.852 11.044 9.852 11.084V11.936ZM11.184 5.504C11.184 5.544 11.164 5.58 11.124 5.612C11.092 5.644 11.056 5.66 11.016 5.66H9.384V8.828C9.384 8.932 9.332 8.984 9.228 8.984H8.16C8.056 8.984 8.004 8.932 8.004 8.828V1.052C8.004 0.947999 8.056 0.895999 8.16 0.895999H9.228C9.332 0.895999 9.384 0.947999 9.384 1.052V4.508H11.016C11.056 4.508 11.092 4.524 11.124 4.556C11.164 4.58 11.184 4.612 11.184 4.652V5.504ZM18.7492 8.132C18.7652 8.188 18.7532 8.24 18.7132 8.288C18.6732 8.336 18.6172 8.368 18.5452 8.384C18.2492 8.464 17.8732 8.544 17.4172 8.624C16.9612 8.696 16.4852 8.76 15.9892 8.816C15.4932 8.872 15.0052 8.912 14.5252 8.936C14.0532 8.952 13.6492 8.944 13.3132 8.912C13.0012 8.88 12.7772 8.788 12.6412 8.636C12.5052 8.484 12.4372 8.272 12.4372 8V1.76C12.4372 1.72 12.4532 1.684 12.4852 1.652C12.5252 1.612 12.5652 1.592 12.6052 1.592H13.6372C13.6852 1.592 13.7252 1.612 13.7572 1.652C13.7972 1.684 13.8172 1.72 13.8172 1.76V7.544C13.8172 7.624 13.8332 7.676 13.8652 7.7C13.8972 7.716 13.9532 7.728 14.0332 7.736C14.3212 7.76 14.6452 7.768 15.0052 7.76C15.3732 7.744 15.7492 7.716 16.1332 7.676C16.5252 7.628 16.9092 7.572 17.2852 7.508C17.6692 7.436 18.0252 7.36 18.3532 7.28C18.4412 7.264 18.5012 7.28 18.5332 7.328C18.5732 7.368 18.6012 7.412 18.6172 7.46L18.7492 8.132ZM22.4692 6.272C22.4692 6.32 22.4492 6.36 22.4092 6.392C22.3772 6.424 22.3412 6.44 22.3012 6.44H20.6692V12.128C20.6692 12.232 20.6172 12.284 20.5132 12.284H19.4452C19.3412 12.284 19.2892 12.232 19.2892 12.128V1.052C19.2892 0.947999 19.3412 0.895999 19.4452 0.895999H20.5132C20.6172 0.895999 20.6692 0.947999 20.6692 1.052V5.288H22.3012C22.3412 5.288 22.3772 5.304 22.4092 5.336C22.4492 5.36 22.4692 5.392 22.4692 5.432V6.272ZM32.2423 11.864C32.2423 11.912 32.2223 11.948 32.1823 11.972C32.1423 11.996 32.1023 12.008 32.0623 12.008H25.4623C25.0943 12.008 24.8463 11.944 24.7183 11.816C24.5983 11.688 24.5383 11.468 24.5383 11.156V8.552C24.5383 8.512 24.5543 8.476 24.5863 8.444C24.6263 8.404 24.6663 8.384 24.7063 8.384H25.7383C25.7863 8.384 25.8263 8.404 25.8583 8.444C25.8983 8.476 25.9183 8.512 25.9183 8.552V10.664C25.9183 10.744 25.9343 10.796 25.9663 10.82C25.9983 10.844 26.0583 10.856 26.1463 10.856H32.0623C32.1023 10.856 32.1423 10.872 32.1823 10.904C32.2223 10.928 32.2423 10.96 32.2423 11V11.864ZM32.0983 5C32.0983 5.056 32.0783 5.096 32.0383 5.12C32.0063 5.144 31.9703 5.156 31.9303 5.156H25.4983C25.1303 5.156 24.8823 5.092 24.7543 4.964C24.6343 4.828 24.5743 4.604 24.5743 4.292V1.28C24.5743 1.24 24.5903 1.204 24.6223 1.172C24.6623 1.132 24.7023 1.112 24.7423 1.112H25.7863C25.8343 1.112 25.8743 1.132 25.9063 1.172C25.9463 1.204 25.9663 1.24 25.9663 1.28V3.812C25.9663 3.892 25.9823 3.944 26.0143 3.968C26.0463 3.992 26.1063 4.004 26.1943 4.004H31.9303C31.9703 4.004 32.0063 4.02 32.0383 4.052C32.0783 4.076 32.0983 4.108 32.0983 4.148V5ZM33.5863 7.352C33.5863 7.392 33.5663 7.436 33.5263 7.484C33.4863 7.524 33.4463 7.544 33.4063 7.544H22.9663C22.9183 7.544 22.8783 7.524 22.8463 7.484C22.8143 7.444 22.7983 7.4 22.7983 7.352V6.56C22.7983 6.448 22.8543 6.392 22.9663 6.392H33.4063C33.4463 6.392 33.4863 6.412 33.5263 6.452C33.5663 6.484 33.5863 6.52 33.5863 6.56V7.352ZM44.8715 6.764C44.8715 6.804 44.8515 6.844 44.8115 6.884C44.7715 6.924 44.7315 6.944 44.6915 6.944H34.2515C34.2035 6.944 34.1635 6.924 34.1315 6.884C34.0995 6.844 34.0835 6.804 34.0835 6.764V5.984C34.0835 5.936 34.0995 5.896 34.1315 5.864C34.1635 5.824 34.2035 5.804 34.2515 5.804H38.3795V3.836C38.3795 3.724 38.4355 3.668 38.5475 3.668H39.5915C39.7035 3.668 39.7595 3.724 39.7595 3.836V5.804H44.6915C44.7315 5.804 44.7715 5.824 44.8115 5.864C44.8515 5.904 44.8715 5.944 44.8715 5.984V6.764ZM35.5835 12.164C35.4315 12.188 35.3355 12.148 35.2955 12.044L35.0315 11.312C34.9915 11.184 35.0275 11.1 35.1395 11.06C35.6275 10.932 36.0835 10.772 36.5075 10.58C36.9395 10.388 37.3155 10.16 37.6355 9.896C37.9555 9.632 38.2115 9.336 38.4035 9.008C38.6035 8.68 38.7235 8.32 38.7635 7.928C38.7795 7.808 38.8515 7.748 38.9795 7.748L39.9515 7.76C40.0475 7.76 40.1035 7.784 40.1195 7.832C40.1435 7.88 40.1515 7.932 40.1435 7.988C40.1355 8.052 40.1275 8.12 40.1195 8.192C40.1115 8.264 40.0995 8.332 40.0835 8.396C40.2115 8.708 40.4155 9.008 40.6955 9.296C40.9755 9.584 41.2875 9.844 41.6315 10.076C41.9835 10.3 42.3515 10.496 42.7355 10.664C43.1195 10.824 43.4835 10.936 43.8275 11C43.8675 11.016 43.8995 11.044 43.9235 11.084C43.9555 11.132 43.9595 11.184 43.9355 11.24L43.6355 11.996C43.5875 12.1 43.4955 12.14 43.3595 12.116C42.9595 12.06 42.5675 11.956 42.1835 11.804C41.7995 11.652 41.4355 11.468 41.0915 11.252C40.7555 11.044 40.4475 10.812 40.1675 10.556C39.8875 10.3 39.6555 10.036 39.4715 9.764C39.2715 10.06 39.0315 10.34 38.7515 10.604C38.4715 10.86 38.1635 11.092 37.8275 11.3C37.4915 11.508 37.1315 11.684 36.7475 11.828C36.3715 11.98 35.9835 12.092 35.5835 12.164ZM43.2875 2.012C43.2875 2.172 43.2795 2.392 43.2635 2.672C43.2475 2.952 43.2275 3.244 43.2035 3.548C43.1795 3.844 43.1515 4.128 43.1195 4.4C43.0875 4.664 43.0555 4.86 43.0235 4.988C43.0075 5.052 42.9755 5.112 42.9275 5.168C42.8875 5.216 42.8355 5.236 42.7715 5.228L41.8475 5.132C41.7275 5.124 41.6795 5.04 41.7035 4.88C41.7275 4.744 41.7515 4.572 41.7755 4.364C41.7995 4.156 41.8195 3.944 41.8355 3.728C41.8515 3.504 41.8635 3.292 41.8715 3.092C41.8875 2.884 41.8955 2.72 41.8955 2.6C41.8955 2.488 41.8675 2.42 41.8115 2.396C41.7635 2.364 41.6835 2.348 41.5715 2.348H36.0035C35.9635 2.348 35.9235 2.336 35.8835 2.312C35.8435 2.28 35.8235 2.244 35.8235 2.204V1.364C35.8235 1.316 35.8435 1.28 35.8835 1.256C35.9235 1.232 35.9635 1.22 36.0035 1.22H42.4955C42.7035 1.22 42.8875 1.28 43.0475 1.4C43.2075 1.512 43.2875 1.716 43.2875 2.012Z" fill="black"/>
</svg>
