<svg width="24" height="24" viewBox="0 0 24 24" fill="none" xmlns="http://www.w3.org/2000/svg">
<path d="M12 2.25C6.62391 2.25 2.25 6.62391 2.25 12C2.25 17.3761 6.62391 21.75 12 21.75C17.3761 21.75 21.75 17.3761 21.75 12C21.75 6.62391 17.3761 2.25 12 2.25ZM9.75 8.25C9.75173 7.6538 9.98934 7.0825 10.4109 6.66092C10.8325 6.23934 11.4038 6.00173 12 6C12.5962 6.00173 13.1675 6.23934 13.5891 6.66092C14.0107 7.0825 14.2483 7.6538 14.25 8.25V11.25C14.2483 11.8462 14.0107 12.4175 13.5891 12.8391C13.1675 13.2607 12.5962 13.4983 12 13.5C11.4038 13.4983 10.8325 13.2607 10.4109 12.8391C9.98934 12.4175 9.75173 11.8462 9.75 11.25V8.25ZM16.5 11.6353C16.5 12.7303 15.9872 13.7733 15.0567 14.5725C14.3992 15.1369 13.6028 15.5152 12.75 15.6684V16.5H13.5C13.6989 16.5 13.8897 16.579 14.0303 16.7197C14.171 16.8603 14.25 17.0511 14.25 17.25C14.25 17.4489 14.171 17.6397 14.0303 17.7803C13.8897 17.921 13.6989 18 13.5 18H10.5C10.3011 18 10.1103 17.921 9.96967 17.7803C9.82902 17.6397 9.75 17.4489 9.75 17.25C9.75 17.0511 9.82902 16.8603 9.96967 16.7197C10.1103 16.579 10.3011 16.5 10.5 16.5H11.25V15.6684C10.3972 15.5152 9.60078 15.1369 8.94328 14.5725C8.01281 13.7733 7.5 12.7303 7.5 11.6353V10.5141C7.5 10.3152 7.57902 10.1244 7.71967 9.98373C7.86032 9.84308 8.05109 9.76406 8.25 9.76406C8.44891 9.76406 8.63968 9.84308 8.78033 9.98373C8.92098 10.1244 9 10.3152 9 10.5141V11.6353C9 12.8381 10.3125 14.2359 12 14.2359C13.3875 14.2359 15 13.1002 15 11.6353V10.5141C15 10.3152 15.079 10.1244 15.2197 9.98373C15.3603 9.84308 15.5511 9.76406 15.75 9.76406C15.9489 9.76406 16.1397 9.84308 16.2803 9.98373C16.421 10.1244 16.5 10.3152 16.5 10.5141V11.6353Z" fill="black"/>
</svg>
