<svg width="25" height="24" viewBox="0 0 25 24" fill="none" xmlns="http://www.w3.org/2000/svg">
<path d="M12.5 3.5C7.60998 3.5 3.64584 7.30558 3.64584 12C3.64584 16.6944 7.60998 20.5 12.5 20.5C17.1017 20.5 20.883 17.1303 21.3134 12.8207C21.3334 12.6202 21.2261 12.4277 21.0411 12.3324C20.8562 12.2372 20.6297 12.2578 20.4667 12.3848C19.5713 13.0824 18.4309 13.5 17.1875 13.5C14.311 13.5 11.9792 11.2614 11.9792 8.5C11.9792 6.8599 12.8012 5.40423 14.0735 4.49167C14.2418 4.37101 14.318 4.16516 14.267 3.96961C14.216 3.77406 14.0476 3.62706 13.84 3.59678C13.4027 3.53302 12.9552 3.5 12.5 3.5Z" fill="white"/>
</svg>
