<svg width="4" height="16" viewBox="0 0 4 16" fill="none" xmlns="http://www.w3.org/2000/svg">
<path d="M-1.19209e-07 1.19645C-1.19209e-07 0.865483 0.196416 0.583333 0.58925 0.35C0.982055 0.116667 1.45428 0 2.00592 0C2.55753 0 3.02778 0.11785 3.41667 0.35355C3.80556 0.589233 4 0.872567 4 1.20355C4 1.53452 3.80358 1.81667 3.41075 2.05C3.01794 2.28333 2.54572 2.4 1.99408 2.4C1.44247 2.4 0.972222 2.28215 0.583333 2.04645C0.194444 1.81077 -1.19209e-07 1.52743 -1.19209e-07 1.19645ZM-1.19209e-07 7.99645C-1.19209e-07 7.66548 0.196416 7.38333 0.58925 7.15C0.982055 6.91667 1.45428 6.8 2.00592 6.8C2.55753 6.8 3.02778 6.91785 3.41667 7.15355C3.80556 7.38923 4 7.67257 4 8.00355C4 8.33452 3.80358 8.61667 3.41075 8.85C3.01794 9.08333 2.54572 9.2 1.99408 9.2C1.44247 9.2 0.972222 9.08215 0.583333 8.84645C0.194444 8.61077 -1.19209e-07 8.32743 -1.19209e-07 7.99645ZM-1.19209e-07 14.7964C-1.19209e-07 14.4655 0.196416 14.1833 0.58925 13.95C0.982055 13.7167 1.45428 13.6 2.00592 13.6C2.55753 13.6 3.02778 13.7179 3.41667 13.9536C3.80556 14.1892 4 14.4726 4 14.8036C4 15.1345 3.80358 15.4167 3.41075 15.65C3.01794 15.8833 2.54572 16 1.99408 16C1.44247 16 0.972222 15.8821 0.583333 15.6464C0.194444 15.4108 -1.19209e-07 15.1274 -1.19209e-07 14.7964Z" fill="white"/>
</svg>
