<svg width="32" height="5" viewBox="0 0 32 5" fill="none" xmlns="http://www.w3.org/2000/svg">
<path d="M2.3929 4.68808C1.73097 4.68808 1.16667 4.46181 0.7 4.00926C0.233333 3.55675 0 3.01275 0 2.37726C0 1.74181 0.2357 1.20008 0.7071 0.752078C1.17847 0.304078 1.74513 0.0800781 2.4071 0.0800781C3.06903 0.0800781 3.63333 0.306352 4.1 0.758896C4.56667 1.21141 4.8 1.75541 4.8 2.39089C4.8 3.02635 4.5643 3.56808 4.0929 4.01608C3.62153 4.46408 3.05487 4.68808 2.3929 4.68808ZM15.9929 4.68808C15.331 4.68808 14.7667 4.46181 14.3 4.00926C13.8333 3.55675 13.6 3.01275 13.6 2.37726C13.6 1.74181 13.8357 1.20008 14.3071 0.752078C14.7785 0.304078 15.3451 0.0800781 16.0071 0.0800781C16.669 0.0800781 17.2333 0.306352 17.7 0.758896C18.1667 1.21141 18.4 1.75541 18.4 2.39089C18.4 3.02635 18.1643 3.56808 17.6929 4.01608C17.2215 4.46408 16.6549 4.68808 15.9929 4.68808ZM29.5929 4.68808C28.931 4.68808 28.3667 4.46181 27.9 4.00926C27.4333 3.55675 27.2 3.01275 27.2 2.37726C27.2 1.74181 27.4357 1.20008 27.9071 0.752078C28.3785 0.304078 28.9451 0.0800781 29.6071 0.0800781C30.269 0.0800781 30.8333 0.306352 31.3 0.758896C31.7667 1.21141 32 1.75541 32 2.39089C32 3.02635 31.7643 3.56808 31.2929 4.01608C30.8215 4.46408 30.2549 4.68808 29.5929 4.68808Z" fill="black"/>
</svg>
