<svg width="48" height="64" viewBox="0 0 48 64" fill="none" xmlns="http://www.w3.org/2000/svg">
<path d="M11.06 49.63H12.33V58.89H11.06V49.63ZM9.85 53.2H11.39V54.26H9.85V53.2ZM8.99 49.79H10.23V58.45H8.99V49.79ZM4.76 50.65H6.09V56H4.76V50.65ZM4.76 55.5H5.4C6.29 55.5 7.33 55.45 8.48 55.23L8.61 56.37C7.4 56.59 6.34 56.64 5.4 56.64H4.76V55.5ZM16.3924 56.73H24.7724V57.82H16.3924V56.73ZM17.0324 50.43H24.0824V51.49H17.0324V50.43ZM17.0724 54.26H24.0524V55.33H17.0724V54.26ZM18.2924 51.41H19.6224V54.36H18.2924V51.41ZM21.5024 51.41H22.8224V54.36H21.5024V51.41ZM25.5916 56.79H33.9716V57.87H25.5916V56.79ZM29.1016 55.04H30.4316V57.23H29.1016V55.04ZM26.5316 50.23H33.0316V53.31H27.8716V54.87H26.5516V52.27H31.7116V51.28H26.5316V50.23ZM26.5516 54.34H33.2416V55.41H26.5516V54.34ZM41.1609 49.63H42.5009V54.37H41.1609V49.63ZM36.2309 54.74H42.5009V57.24H37.5609V58.36H36.2509V56.29H41.1809V55.76H36.2309V54.74ZM36.2509 57.8H42.7509V58.83H36.2509V57.8ZM35.1809 50.19H40.1709V51.21H35.1809V50.19ZM35.0709 54.21L34.9409 53.16C36.5609 53.16 38.7209 53.13 40.5109 52.91L40.5809 53.86C38.7509 54.16 36.6709 54.2 35.0709 54.21ZM35.9109 50.65H37.1809V53.68H35.9109V50.65ZM38.1509 50.65H39.4409V53.68H38.1509V50.65Z" fill="white"/>
<path fill-rule="evenodd" clip-rule="evenodd" d="M15.5 15C15.5 10.3056 19.3056 6.5 24 6.5C28.6944 6.5 32.5 10.3056 32.5 15C32.5 19.6944 28.6944 23.5 24 23.5C19.3056 23.5 15.5 19.6944 15.5 15ZM24 9.5C20.9624 9.5 18.5 11.9624 18.5 15C18.5 18.0376 20.9624 20.5 24 20.5C27.0376 20.5 29.5 18.0376 29.5 15C29.5 11.9624 27.0376 9.5 24 9.5Z" fill="white"/>
<path fill-rule="evenodd" clip-rule="evenodd" d="M16 29.5C13.5147 29.5 11.5 31.5147 11.5 34V36.3766C11.5 36.4128 11.5262 36.4436 11.5619 36.4494C19.7994 37.7943 28.2006 37.7943 36.4381 36.4494C36.4738 36.4436 36.5 36.4128 36.5 36.3766V34C36.5 31.5147 34.4853 29.5 32 29.5H31.3183C31.2656 29.5 31.2132 29.5083 31.1631 29.5247L29.432 30.0899C25.9024 31.2425 22.0976 31.2425 18.568 30.0899L16.8369 29.5247C16.7868 29.5083 16.7344 29.5 16.6817 29.5H16ZM8.5 34C8.5 29.8579 11.8579 26.5 16 26.5H16.6817C17.0507 26.5 17.4174 26.5583 17.7681 26.6729L19.4992 27.2381C22.4237 28.1931 25.5763 28.1931 28.5008 27.2381L30.2319 26.6729C30.5826 26.5583 30.9493 26.5 31.3183 26.5H32C36.1421 26.5 39.5 29.8579 39.5 34V36.3766C39.5 37.883 38.4082 39.1675 36.9215 39.4102C28.3638 40.8074 19.6362 40.8074 11.0785 39.4102C9.59177 39.1675 8.5 37.883 8.5 36.3766V34Z" fill="white"/>
<path d="M47 25.5C47 37.3336 36.9678 47 24.5 47C12.0322 47 2 37.3336 2 25.5C2 13.6664 12.0322 4 24.5 4C36.9678 4 47 13.6664 47 25.5Z" stroke="white" stroke-width="2"/>
</svg>
