<svg width="24" height="26" viewBox="0 0 24 26" fill="none" xmlns="http://www.w3.org/2000/svg">
<path fill-rule="evenodd" clip-rule="evenodd" d="M5.66766 6.15154C-1.29413 13.8087 -1.83288 19.3795 3.99905 23.4065C12.1177 29.0141 24 24.7742 24 16.2709C24 13.0992 22.4212 10.1917 18.3881 5.9387C15.3022 2.68426 12.4394 0.0105486 12.0279 3.77415e-05C11.6163 -0.011787 8.75498 2.75652 5.66766 6.15154Z" fill="#6161FF"/>
<path d="M15.672 19.472C15.68 19.552 15.672 19.628 15.648 19.7C15.632 19.748 15.608 19.788 15.576 19.82C15.552 19.852 15.52 19.884 15.48 19.916C15.408 19.964 15.32 20.008 15.216 20.048C15.152 20.064 15.088 20.076 15.024 20.084C14.968 20.1 14.908 20.1 14.844 20.084C14.716 20.076 14.604 20.028 14.508 19.94C14.372 19.828 14.26 19.704 14.172 19.568C14.132 19.504 14.088 19.432 14.04 19.352C13.992 19.272 13.948 19.188 13.908 19.1L12.576 16.568C12.512 16.568 12.448 16.572 12.384 16.58C12.32 16.58 12.256 16.584 12.192 16.592C12.024 16.608 11.864 16.612 11.712 16.604C11.568 16.596 11.416 16.596 11.256 16.604H11.028V18.776C11.028 18.84 11.024 18.9 11.016 18.956C11.016 19.012 11.016 19.072 11.016 19.136C11.016 19.176 11.012 19.228 11.004 19.292C11.004 19.356 11 19.416 10.992 19.472C10.976 19.56 10.94 19.652 10.884 19.748C10.828 19.836 10.752 19.912 10.656 19.976C10.488 20.08 10.284 20.108 10.044 20.06C9.94 20.036 9.84 19.996 9.744 19.94C9.712 19.916 9.684 19.888 9.66 19.856C9.636 19.816 9.616 19.776 9.6 19.736C9.584 19.696 9.568 19.656 9.552 19.616C9.544 19.568 9.532 19.524 9.516 19.484C9.492 19.404 9.48 19.328 9.48 19.256V12.44C9.48 12.392 9.48 12.344 9.48 12.296C9.488 12.24 9.496 12.192 9.504 12.152C9.512 12.064 9.54 11.976 9.588 11.888C9.612 11.792 9.652 11.724 9.708 11.684C9.756 11.636 9.828 11.596 9.924 11.564C10.028 11.524 10.176 11.508 10.368 11.516C10.728 11.524 11.084 11.528 11.436 11.528C11.788 11.528 12.14 11.536 12.492 11.552C12.724 11.568 12.968 11.596 13.224 11.636C13.488 11.668 13.732 11.728 13.956 11.816C14.1 11.872 14.232 11.928 14.352 11.984C14.504 12.072 14.624 12.156 14.712 12.236C14.992 12.492 15.204 12.8 15.348 13.16C15.492 13.52 15.564 13.884 15.564 14.252C15.564 14.684 15.46 15.08 15.252 15.44C15.052 15.8 14.728 16.068 14.28 16.244C14.264 16.26 14.24 16.272 14.208 16.28C14.184 16.28 14.164 16.284 14.148 16.292L15.252 18.512L15.36 18.704C15.376 18.736 15.396 18.772 15.42 18.812C15.444 18.852 15.464 18.892 15.48 18.932C15.504 18.972 15.524 19.016 15.54 19.064C15.564 19.112 15.588 19.156 15.612 19.196C15.636 19.308 15.656 19.4 15.672 19.472ZM12.672 15.2C12.816 15.2 12.952 15.176 13.08 15.128C13.216 15.072 13.336 15 13.44 14.912C13.552 14.824 13.644 14.724 13.716 14.612C13.788 14.492 13.828 14.364 13.836 14.228C13.868 13.828 13.764 13.532 13.524 13.34C13.284 13.14 12.968 13.032 12.576 13.016C12.344 13 12.088 12.992 11.808 12.992C11.536 12.992 11.276 12.992 11.028 12.992C11.036 13.32 11.036 13.656 11.028 14C11.028 14.336 11.028 14.736 11.028 15.2H12.672Z" fill="white"/>
</svg>
