<svg width="24" height="24" viewBox="0 0 24 24" fill="none" xmlns="http://www.w3.org/2000/svg">
<path d="M13 13H11V7H13V13Z" fill="white"/>
<path d="M12 17.3C11.28 17.3 10.7 16.72 10.7 16C10.7 15.28 11.28 14.7 12 14.7C12.72 14.7 13.3 15.28 13.3 16C13.3 16.72 12.72 17.3 12 17.3Z" fill="white"/>
<path d="M13 13H11V7H13V13Z" stroke="white"/>
<path d="M12 17.3C11.28 17.3 10.7 16.72 10.7 16C10.7 15.28 11.28 14.7 12 14.7C12.72 14.7 13.3 15.28 13.3 16C13.3 16.72 12.72 17.3 12 17.3Z" stroke="white"/>
</svg>
