<svg width="12" height="12" viewBox="0 0 12 12" fill="none" xmlns="http://www.w3.org/2000/svg">
<path d="M2.5 10.5H9.5C9.76522 10.5 10.0196 10.3947 10.2071 10.2071C10.3946 10.0196 10.5 9.76523 10.5 9.50001V4.00001C10.5004 3.93421 10.4878 3.86897 10.4629 3.80806C10.438 3.74714 10.4013 3.69173 10.355 3.64501L8.355 1.64501C8.30828 1.59867 8.25287 1.56201 8.19195 1.53712C8.13103 1.51224 8.0658 1.49963 8 1.50001H2.5C2.23478 1.50001 1.98043 1.60537 1.79289 1.7929C1.60536 1.98044 1.5 2.23479 1.5 2.50001V9.50001C1.5 9.76523 1.60536 10.0196 1.79289 10.2071C1.98043 10.3947 2.23478 10.5 2.5 10.5ZM7.5 9.50001H4.5V7.00001H7.5V9.50001ZM6.5 3.50001H5.5V2.50001H6.5V3.50001ZM2.5 2.50001H3.5V4.50001H7.5V2.50001H7.795L9.5 4.20501V9.50001H8.5V7.00001C8.5 6.73479 8.39464 6.48044 8.20711 6.2929C8.01957 6.10537 7.76522 6.00001 7.5 6.00001H4.5C4.23478 6.00001 3.98043 6.10537 3.79289 6.2929C3.60536 6.48044 3.5 6.73479 3.5 7.00001V9.50001H2.5V2.50001Z" fill="white"/>
</svg>
