<svg width="16" height="16" viewBox="0 0 16 16" fill="none" xmlns="http://www.w3.org/2000/svg">
<path d="M3.33333 14H12.6667C13.0203 14 13.3594 13.8595 13.6095 13.6095C13.8595 13.3594 14 13.0203 14 12.6667V5.33334C14.0005 5.24561 13.9837 5.15863 13.9505 5.07741C13.9173 4.99618 13.8685 4.9223 13.8067 4.86001L11.14 2.19334C11.0777 2.13156 11.0038 2.08267 10.9226 2.0495C10.8414 2.01632 10.7544 1.9995 10.6667 2.00001H3.33333C2.97971 2.00001 2.64057 2.14049 2.39052 2.39054C2.14048 2.64058 2 2.97972 2 3.33334V12.6667C2 13.0203 2.14048 13.3594 2.39052 13.6095C2.64057 13.8595 2.97971 14 3.33333 14ZM10 12.6667H6V9.33334H10V12.6667ZM8.66667 4.66668H7.33333V3.33334H8.66667V4.66668ZM3.33333 3.33334H4.66667V6.00001H10V3.33334H10.3933L12.6667 5.60668V12.6667H11.3333V9.33334C11.3333 8.97972 11.1929 8.64058 10.9428 8.39054C10.6928 8.14049 10.3536 8.00001 10 8.00001H6C5.64638 8.00001 5.30724 8.14049 5.05719 8.39054C4.80714 8.64058 4.66667 8.97972 4.66667 9.33334V12.6667H3.33333V3.33334Z" fill="black"/>
</svg>
