<svg width="48" height="40" viewBox="0 0 48 40" fill="none" xmlns="http://www.w3.org/2000/svg">
<g clip-path="url(#clip0_1789_1766)">
<path d="M21.0428 19.408C20.9121 19.3893 20.7814 19.38 20.6508 19.38C20.5294 19.3707 20.4034 19.3567 20.2728 19.338C20.1141 19.3287 19.9601 19.2913 19.8108 19.226C19.6708 19.1607 19.5494 19.0767 19.4468 18.974C19.3441 18.8713 19.2741 18.7453 19.2368 18.596C19.1994 18.4467 19.2041 18.2833 19.2508 18.106C19.2694 18.0313 19.3068 17.952 19.3628 17.868C19.4281 17.784 19.4888 17.7187 19.5448 17.672C19.6754 17.5787 19.8061 17.518 19.9368 17.49C20.0861 17.4713 20.2634 17.4667 20.4688 17.476C20.6834 17.4853 20.8701 17.4807 21.0288 17.462H21.0708V17.406C21.0708 17.294 21.0708 17.2053 21.0708 17.14C21.0801 17.0653 21.0848 17 21.0848 16.944C21.0848 16.888 21.0801 16.8273 21.0708 16.762C21.0708 16.6967 21.0708 16.6033 21.0708 16.482C21.0708 16.2393 21.0661 16.0013 21.0568 15.768C21.0568 15.5253 21.0614 15.2873 21.0708 15.054V14.858C21.0708 14.7367 21.0708 14.606 21.0708 14.466C21.0801 14.3167 21.0941 14.172 21.1128 14.032C21.1314 13.8827 21.1641 13.7473 21.2108 13.626C21.2574 13.4953 21.3228 13.388 21.4068 13.304C21.5468 13.1827 21.6961 13.122 21.8548 13.122H21.8828C22.1068 13.1313 22.2841 13.2013 22.4148 13.332C22.5548 13.4533 22.6574 13.6027 22.7228 13.78C22.7974 13.9573 22.8441 14.144 22.8628 14.34C22.8814 14.5267 22.8908 14.6947 22.8908 14.844V23.244C22.8908 23.2533 22.8908 23.3 22.8908 23.384C22.8908 23.4587 22.8814 23.552 22.8628 23.664C22.8441 23.776 22.8161 23.888 22.7788 24C22.7414 24.112 22.6808 24.2053 22.5968 24.28C22.5314 24.3453 22.4381 24.3967 22.3168 24.434C22.1954 24.4713 22.0834 24.49 21.9808 24.49C21.7568 24.49 21.5794 24.4153 21.4488 24.266C21.3274 24.1353 21.2528 24 21.2248 23.86C21.1968 23.72 21.1734 23.5707 21.1548 23.412C21.1548 23.384 21.1501 23.356 21.1408 23.328C21.1408 23.3 21.1408 23.2673 21.1408 23.23C21.1221 23.0807 21.1128 22.922 21.1128 22.754C21.1128 22.586 21.1081 22.418 21.0988 22.25C21.0894 22.1473 21.0848 22.0493 21.0848 21.956C21.0848 21.8533 21.0848 21.7507 21.0848 21.648V21.326C21.0848 21.2327 21.0848 21.116 21.0848 20.976C21.0848 20.8267 21.0801 20.6773 21.0708 20.528C21.0708 20.3693 21.0708 20.22 21.0708 20.08C21.0708 19.94 21.0708 19.8187 21.0708 19.716C21.0708 19.6693 21.0708 19.618 21.0708 19.562C21.0708 19.506 21.0614 19.4547 21.0428 19.408ZM18.2288 13.78C18.6114 13.78 18.9381 13.8127 19.2088 13.878C19.4794 13.9433 19.6941 14.1113 19.8528 14.382C20.0021 14.634 20.0254 14.886 19.9228 15.138C19.7921 15.3993 19.5588 15.5533 19.2228 15.6C18.9988 15.6373 18.7421 15.6607 18.4528 15.67C18.1634 15.67 17.7808 15.6607 17.3048 15.642C17.2954 15.8007 17.2908 15.964 17.2908 16.132C17.2908 16.2907 17.2908 16.44 17.2908 16.58C17.2908 16.7107 17.2908 16.8227 17.2908 16.916C17.3001 17.0093 17.3048 17.07 17.3048 17.098V18.666C17.3048 18.7407 17.3094 18.8433 17.3188 18.974C17.3281 19.0953 17.3374 19.1887 17.3468 19.254C17.4214 19.3287 17.5241 19.4407 17.6548 19.59C17.7854 19.73 17.8881 19.8467 17.9628 19.94C18.0561 20.052 18.1494 20.1687 18.2428 20.29C18.3454 20.4113 18.4481 20.5467 18.5508 20.696C18.6254 20.78 18.6908 20.864 18.7468 20.948C18.8028 21.032 18.8541 21.1067 18.9008 21.172C19.0781 21.424 19.2601 21.6993 19.4468 21.998C19.6334 22.2967 19.7594 22.5953 19.8248 22.894C19.8528 23.0247 19.8528 23.1693 19.8248 23.328C19.8061 23.4773 19.7408 23.6033 19.6288 23.706C19.4701 23.846 19.2928 23.916 19.0968 23.916C18.8821 23.916 18.6768 23.86 18.4808 23.748C18.2848 23.6267 18.1261 23.5007 18.0048 23.37C17.8274 23.1833 17.6594 22.9873 17.5008 22.782C17.3514 22.5767 17.2021 22.376 17.0528 22.18C16.9501 22.0307 16.8428 21.886 16.7308 21.746C16.6188 21.5967 16.5021 21.452 16.3808 21.312C16.3621 21.2747 16.3434 21.2513 16.3248 21.242C16.3248 21.2513 16.3201 21.256 16.3108 21.256C16.3108 21.256 16.3108 21.2607 16.3108 21.27C16.2641 21.3447 16.2081 21.4193 16.1428 21.494C16.0868 21.5593 16.0354 21.6293 15.9888 21.704C15.9141 21.788 15.8441 21.8767 15.7788 21.97C15.7228 22.054 15.6668 22.138 15.6108 22.222C15.4801 22.418 15.3494 22.614 15.2188 22.81C15.0881 22.9967 14.9388 23.174 14.7708 23.342C14.3694 23.7433 13.9914 23.944 13.6368 23.944C13.5434 23.944 13.4548 23.93 13.3708 23.902C13.1561 23.846 13.0114 23.7153 12.9368 23.51C12.8621 23.3513 12.8341 23.1787 12.8528 22.992C12.8808 22.8053 12.9274 22.642 12.9928 22.502C13.0674 22.3433 13.1514 22.194 13.2448 22.054C13.3381 21.914 13.4361 21.774 13.5388 21.634C13.6041 21.55 13.6648 21.466 13.7208 21.382C13.7861 21.298 13.8421 21.214 13.8888 21.13C13.9728 20.99 14.0848 20.8267 14.2248 20.64C14.3741 20.444 14.5188 20.2573 14.6588 20.08C14.8081 19.8933 14.9434 19.7253 15.0648 19.576C15.1861 19.4267 15.2701 19.3193 15.3168 19.254V15.642H14.4628C14.1081 15.642 13.8608 15.642 13.7208 15.642C13.5901 15.6327 13.4921 15.6187 13.4268 15.6C13.0721 15.544 12.8341 15.3433 12.7128 14.998C12.6101 14.6993 12.6474 14.438 12.8248 14.214C12.9834 13.99 13.2074 13.85 13.4968 13.794C13.5434 13.7847 13.5901 13.78 13.6368 13.78C13.6834 13.7707 13.7348 13.766 13.7908 13.766C13.8841 13.766 13.9494 13.7707 13.9868 13.78H18.2288ZM24.8806 22.306C24.8806 21.886 25.002 21.536 25.2446 21.256C25.4966 20.976 25.8326 20.7567 26.2526 20.598C26.6726 20.43 27.1673 20.3133 27.7366 20.248C28.306 20.1827 28.9126 20.15 29.5566 20.15C30.2006 20.15 30.8073 20.1733 31.3766 20.22C31.946 20.2667 32.4406 20.3693 32.8606 20.528C33.2806 20.6773 33.612 20.892 33.8546 21.172C34.1066 21.452 34.2326 21.83 34.2326 22.306C34.2326 22.7727 34.1066 23.146 33.8546 23.426C33.612 23.706 33.2806 23.9207 32.8606 24.07C32.4406 24.2287 31.946 24.3313 31.3766 24.378C30.8073 24.434 30.2006 24.462 29.5566 24.462C28.9126 24.462 28.306 24.434 27.7366 24.378C27.1673 24.3313 26.6726 24.2287 26.2526 24.07C25.8326 23.9207 25.4966 23.706 25.2446 23.426C25.002 23.146 24.8806 22.7727 24.8806 22.306ZM28.3526 14.942C28.3526 14.942 28.348 15.0073 28.3386 15.138C28.3386 15.2687 28.3386 15.4133 28.3386 15.572C28.3386 15.7307 28.3386 15.88 28.3386 16.02C28.348 16.16 28.3526 16.2393 28.3526 16.258C28.3993 16.3047 28.4833 16.384 28.6046 16.496C28.726 16.5987 28.8286 16.6873 28.9126 16.762C29.006 16.8367 29.0993 16.9207 29.1926 17.014C29.2953 17.098 29.398 17.1913 29.5006 17.294C29.566 17.3593 29.6266 17.4247 29.6826 17.49C29.7386 17.546 29.79 17.5973 29.8366 17.644C30.014 17.8213 30.1913 18.0127 30.3686 18.218C30.546 18.4233 30.6673 18.6333 30.7326 18.848C30.7606 18.932 30.7653 19.0253 30.7466 19.128C30.728 19.2307 30.6673 19.3193 30.5646 19.394C30.406 19.4873 30.238 19.534 30.0606 19.534C29.8553 19.534 29.6593 19.492 29.4726 19.408C29.286 19.324 29.1366 19.24 29.0246 19.156C28.8473 19.0253 28.684 18.89 28.5346 18.75C28.3853 18.6007 28.236 18.4513 28.0866 18.302C27.984 18.1993 27.8673 18.0827 27.7366 17.952C27.606 17.812 27.4753 17.6907 27.3446 17.588L26.9666 17.966C26.9013 18.0313 26.836 18.0967 26.7706 18.162C26.7053 18.218 26.6446 18.2787 26.5886 18.344C26.4673 18.4747 26.3413 18.61 26.2106 18.75C26.08 18.8807 25.9306 19.0067 25.7626 19.128C25.38 19.408 25.0206 19.548 24.6846 19.548C24.638 19.548 24.596 19.548 24.5586 19.548C24.5306 19.548 24.4933 19.5387 24.4466 19.52C24.2413 19.4733 24.106 19.3893 24.0406 19.268C23.9753 19.1653 23.952 19.0487 23.9706 18.918C23.9986 18.7873 24.0406 18.6707 24.0966 18.568C24.1713 18.4653 24.2553 18.3673 24.3486 18.274C24.442 18.1713 24.5353 18.0687 24.6286 17.966C24.7126 17.8727 24.8433 17.742 25.0206 17.574C25.2073 17.3967 25.394 17.2193 25.5806 17.042C25.7673 16.8553 25.94 16.6873 26.0986 16.538C26.2573 16.3887 26.3553 16.2953 26.3926 16.258V14.942H25.4966C25.3846 14.942 25.254 14.9467 25.1046 14.956C24.9553 14.956 24.806 14.9467 24.6566 14.928C24.5166 14.9093 24.386 14.872 24.2646 14.816C24.1433 14.7507 24.0546 14.648 23.9986 14.508C23.952 14.4053 23.9193 14.2887 23.9006 14.158C23.8913 14.0273 23.9006 13.906 23.9286 13.794C23.966 13.6633 24.05 13.5747 24.1806 13.528C24.3113 13.472 24.4373 13.4347 24.5586 13.416C24.5773 13.416 24.652 13.416 24.7826 13.416C24.9226 13.416 25.072 13.416 25.2306 13.416C25.3893 13.416 25.5386 13.416 25.6786 13.416C25.8186 13.416 25.9026 13.4113 25.9306 13.402H29.2066C29.58 13.402 29.8926 13.4253 30.1446 13.472C30.406 13.5187 30.616 13.6353 30.7746 13.822C30.8213 13.878 30.8493 13.9527 30.8586 14.046C30.8773 14.1393 30.8773 14.2373 30.8586 14.34C30.8493 14.4333 30.8213 14.522 30.7746 14.606C30.7373 14.69 30.6813 14.7507 30.6066 14.788C30.532 14.816 30.4433 14.8487 30.3406 14.886C30.238 14.914 30.1493 14.9327 30.0746 14.942C29.944 14.9513 29.8086 14.956 29.6686 14.956C29.538 14.9467 29.4073 14.942 29.2766 14.942H28.3526ZM33.9806 17.42V18.834C33.9713 18.9367 33.9573 19.044 33.9386 19.156C33.92 19.2587 33.8826 19.3613 33.8266 19.464C33.7706 19.576 33.6913 19.6693 33.5886 19.744C33.514 19.7907 33.4253 19.828 33.3226 19.856C33.2293 19.8747 33.1453 19.884 33.0706 19.884C32.996 19.884 32.9166 19.8793 32.8326 19.87C32.7486 19.8513 32.6786 19.8233 32.6226 19.786C32.5293 19.73 32.4546 19.66 32.3986 19.576C32.3426 19.492 32.296 19.4127 32.2586 19.338C32.2306 19.254 32.212 19.184 32.2026 19.128C32.1933 19.0627 32.1886 19.03 32.1886 19.03V14.27C32.1793 14.2327 32.184 14.13 32.2026 13.962C32.2213 13.794 32.2586 13.654 32.3146 13.542C32.3613 13.4487 32.4406 13.374 32.5526 13.318C32.674 13.262 32.8 13.2247 32.9306 13.206C33.0893 13.1873 33.248 13.1967 33.4066 13.234C33.5653 13.2713 33.682 13.332 33.7566 13.416C33.8126 13.4907 33.85 13.5653 33.8686 13.64C33.8966 13.7053 33.92 13.7753 33.9386 13.85C33.9666 13.9433 33.9806 14.0413 33.9806 14.144C33.99 14.2467 33.99 14.3493 33.9806 14.452V15.418V15.544C33.9806 15.5907 33.976 15.642 33.9666 15.698C33.9666 15.7447 33.9713 15.8007 33.9806 15.866C34.018 15.866 34.088 15.8707 34.1906 15.88C34.2933 15.88 34.4006 15.8847 34.5126 15.894C34.6246 15.894 34.732 15.8987 34.8346 15.908C34.9373 15.9173 35.012 15.9267 35.0586 15.936C35.2453 15.9733 35.376 16.0293 35.4506 16.104C35.5253 16.1693 35.572 16.2533 35.5906 16.356C35.6186 16.4587 35.6326 16.58 35.6326 16.72C35.6326 16.8507 35.6046 16.9627 35.5486 17.056C35.4366 17.2427 35.2686 17.35 35.0446 17.378C34.8206 17.3967 34.5733 17.4107 34.3026 17.42H33.9806ZM32.3426 22.306C32.3426 22.1473 32.2586 22.0213 32.0906 21.928C31.9226 21.8347 31.7033 21.7647 31.4326 21.718C31.1713 21.6713 30.8726 21.6433 30.5366 21.634C30.21 21.6153 29.8833 21.606 29.5566 21.606C29.23 21.606 28.9033 21.6153 28.5766 21.634C28.2593 21.6433 27.97 21.6713 27.7086 21.718C27.4566 21.7647 27.2513 21.8347 27.0926 21.928C26.934 22.0213 26.8546 22.1473 26.8546 22.306C26.8546 22.446 26.934 22.5627 27.0926 22.656C27.2513 22.7493 27.4566 22.8193 27.7086 22.866C27.97 22.9127 28.2593 22.9453 28.5766 22.964C28.9033 22.9827 29.23 22.992 29.5566 22.992C29.8833 22.992 30.21 22.992 30.5366 22.992C30.8726 22.992 31.1713 22.9733 31.4326 22.936C31.7033 22.8987 31.9226 22.8333 32.0906 22.74C32.2586 22.6373 32.3426 22.4927 32.3426 22.306Z" fill="black"/>
</g>
<defs>
<clipPath id="clip0_1789_1766">
<rect width="48" height="40" rx="20" fill="white"/>
</clipPath>
</defs>
</svg>
