<svg width="48" height="48" viewBox="0 0 48 48" fill="none" xmlns="http://www.w3.org/2000/svg">
<path d="M40.2797 26.7047L40.2891 26.7094C40.4344 25.8234 40.5047 24.9188 40.5047 24.0234C40.5047 23.2219 40.4438 22.4156 40.3313 21.6281C40.4438 22.4109 40.5 23.2031 40.5 23.9953C40.5 24.9047 40.425 25.8141 40.2797 26.7047ZM4.64064 18.6609C4.6172 18.6422 4.59845 18.6234 4.57501 18.6C4.60782 18.6328 4.64064 18.6656 4.67814 18.6984L7.74845 21.3187V21.3141L4.64064 18.6609ZM29.7938 8.53594H29.7985L29.0719 4.60781C29.0625 4.56094 29.0531 4.51875 29.0391 4.47656C29.0438 4.5 29.0531 4.52812 29.0578 4.55156L29.7938 8.53594ZM32.325 34.1531L33.7969 32.9437L38.1469 34.4859C38.9438 33.4125 39.6141 32.2594 40.1438 31.0359L36.6422 28.0406L36.9516 26.1609C37.0688 25.4531 37.1297 24.7266 37.1297 24C37.1297 23.2734 37.0688 22.5469 36.9516 21.8391L36.6469 19.9688L40.1485 16.9734C39.6141 15.7547 38.9485 14.5969 38.1516 13.5234L33.8016 15.0656L32.3297 13.8563C31.2094 12.9375 29.9578 12.2156 28.6125 11.7094L26.8266 11.0391L25.9875 6.49219C24.6636 6.34219 23.327 6.34219 22.0031 6.49219L21.1641 11.0484L19.3875 11.7188C18.0516 12.225 16.8094 12.9469 15.6985 13.8609L14.2266 15.075L9.84845 13.5187C9.05158 14.5922 8.38126 15.7453 7.85158 16.9688L11.3906 19.9922L11.0859 21.8672C10.9688 22.5656 10.9125 23.2828 10.9125 24C10.9125 24.7125 10.9734 25.4344 11.0859 26.1328L11.3906 28.0078L7.85158 31.0312C8.38595 32.25 9.05158 33.4078 9.84845 34.4812L14.2266 32.925L15.6985 34.1391C16.8094 35.0531 18.0516 35.775 19.3875 36.2812L21.1594 36.9609L21.9984 41.5172C23.3203 41.6672 24.6656 41.6672 25.9828 41.5172L26.8219 36.9703L28.6078 36.3C29.9578 35.7938 31.2047 35.0719 32.325 34.1531ZM24.0235 31.7953C22.5938 31.7953 21.2485 31.4297 20.0719 30.7875C17.4985 29.3906 15.75 26.6672 15.75 23.5312C15.75 18.975 19.4438 15.2812 24 15.2812C27.136 15.2812 29.8594 17.0297 31.2563 19.6031C31.8985 20.775 32.2641 22.1203 32.2641 23.5547C32.2641 28.1062 28.575 31.7953 24.0235 31.7953ZM9.71251 38.1C9.4547 38.1891 9.18751 38.2078 8.93439 38.1562C9.20158 38.2125 9.48283 38.2031 9.7547 38.1094L13.5703 36.75C13.5656 36.7453 13.5563 36.7406 13.5516 36.7359L9.71251 38.1ZM43.35 18.6609L40.2797 21.2859C40.2797 21.2953 40.2844 21.3094 40.2844 21.3187L43.35 18.6984C43.6828 18.4125 43.8703 18 43.875 17.5734C43.861 17.9859 43.6735 18.3844 43.35 18.6609Z" fill="white"/>
<path d="M43.8656 30.3094C43.8891 30.5297 43.8656 30.7547 43.7859 30.9703L43.7437 31.0922C42.8964 33.4536 41.6309 35.6432 40.0078 37.5563L39.9234 37.6547C39.7268 37.8871 39.4641 38.0542 39.1702 38.1338C38.8763 38.2133 38.5652 38.2015 38.2781 38.1L34.4672 36.7453C33.0691 37.8972 31.4899 38.8095 29.7937 39.4453L29.0578 43.4297C29.0023 43.7295 28.8569 44.0053 28.6408 44.2205C28.4248 44.4357 28.1484 44.58 27.8484 44.6344L27.7219 44.6578C26.4968 44.8793 25.2543 44.9907 24.0094 44.9906H24.0234C25.275 44.9906 26.5266 44.8781 27.7453 44.6578L27.8719 44.6344C28.1719 44.58 28.4483 44.4357 28.6643 44.2205C28.8803 44.0053 29.0257 43.7295 29.0812 43.4297L29.8172 39.45C31.5141 38.8125 33.0797 37.9078 34.4859 36.7547L38.2922 38.1094C38.5792 38.2109 38.8903 38.2227 39.1842 38.1431C39.4781 38.0636 39.7408 37.8965 39.9375 37.6641L40.0219 37.5656C41.6531 35.6391 42.9047 33.4688 43.7531 31.111L43.7953 30.9891C43.8703 30.7688 43.8937 30.5344 43.8656 30.3094V30.3094Z" fill="black"/>
<path d="M27.8484 44.6344C28.1484 44.58 28.4248 44.4357 28.6408 44.2205C28.8568 44.0053 29.0023 43.7295 29.0578 43.4297L29.7937 39.4453C31.4899 38.8095 33.0691 37.8972 34.4672 36.7453L38.2781 38.1C38.5651 38.2015 38.8763 38.2133 39.1702 38.1338C39.464 38.0542 39.7268 37.8871 39.9234 37.6547L40.0078 37.5563C41.639 35.6297 42.8953 33.4547 43.7437 31.0922L43.7859 30.9703C43.8656 30.7547 43.889 30.5297 43.8656 30.3094C43.8234 29.9391 43.6453 29.5875 43.35 29.3297L40.289 26.7094L40.2797 26.7047C40.425 25.8141 40.5 24.9047 40.5 23.9953C40.5 23.2031 40.4437 22.4063 40.3312 21.6281C40.3172 21.525 40.2984 21.4219 40.2844 21.3188C40.2844 21.3094 40.2797 21.2953 40.2797 21.2859L43.35 18.6609C43.6734 18.3844 43.8609 17.9859 43.875 17.5734C43.8797 17.3859 43.8515 17.1938 43.7859 17.0109L43.7437 16.8891C42.8985 14.5267 41.6328 12.3367 40.0078 10.425L39.9234 10.3266C39.7263 10.0948 39.4636 9.92817 39.1698 9.84867C38.8761 9.76918 38.5652 9.78054 38.2781 9.88126L34.4672 11.2359C33.0609 10.0828 31.4953 9.17345 29.7984 8.53595H29.7937L29.0578 4.55157C29.0531 4.52814 29.0484 4.50001 29.039 4.47657C28.9714 4.19317 28.8228 3.93552 28.6114 3.73497C28.4001 3.53442 28.135 3.39959 27.8484 3.34689L27.7219 3.32345C25.2797 2.88282 22.7109 2.88282 20.2687 3.32345L20.1422 3.34689C19.8422 3.40125 19.5658 3.54561 19.3498 3.76078C19.1338 3.97596 18.9883 4.25177 18.9328 4.55157L18.1922 8.5547C16.5088 9.19233 14.9412 10.1012 13.5515 11.2453L9.71248 9.88126C9.42545 9.77974 9.11432 9.76797 8.82043 9.84751C8.52654 9.92705 8.26382 10.0941 8.06717 10.3266L7.9828 10.425C6.35973 12.3381 5.09425 14.5277 4.24686 16.8891L4.20467 17.0109C4.10699 17.2834 4.08997 17.5782 4.15565 17.8601C4.22134 18.1419 4.36693 18.3988 4.57499 18.6C4.59842 18.6188 4.61717 18.6422 4.64061 18.6609L7.74842 21.3141V21.3188C7.60311 22.2 7.5328 23.0953 7.5328 23.9906C7.5328 24.8906 7.60311 25.7906 7.74842 26.6672L4.64061 29.3203C4.40903 29.5186 4.24328 29.7826 4.16541 30.0774C4.08754 30.3721 4.10123 30.6836 4.20467 30.9703L4.24686 31.0922C5.0953 33.4547 6.35155 35.6344 7.9828 37.5563L8.06717 37.6547C8.29686 37.9219 8.60155 38.0953 8.93436 38.1563C9.18749 38.2031 9.45467 38.1891 9.71248 38.1L13.5515 36.736C13.5562 36.7406 13.5656 36.7453 13.5703 36.75C14.9625 37.8891 16.514 38.7938 18.1922 39.4266L18.9328 43.4297C18.9883 43.7295 19.1338 44.0053 19.3498 44.2205C19.5658 44.4357 19.8422 44.58 20.1422 44.6344L20.2687 44.6578C21.4922 44.8781 22.7437 44.9906 23.9953 44.9906H24.0094C25.2562 44.9906 26.5078 44.8781 27.7219 44.6578L27.8484 44.6344ZM25.9828 41.5172C24.6589 41.6672 23.3223 41.6672 21.9984 41.5172L21.1594 36.961L19.3875 36.2813C18.0515 35.775 16.8094 35.0531 15.6984 34.1391L14.2265 32.925L9.84842 34.4813C9.05155 33.4078 8.38592 32.25 7.85155 31.0313L11.3906 28.0078L11.0859 26.1328C10.9734 25.4344 10.9125 24.7125 10.9125 24C10.9125 23.2828 10.9687 22.5656 11.0859 21.8672L11.3906 19.9922L7.85155 16.9688C8.38124 15.7453 9.05155 14.5922 9.84842 13.5188L14.2265 15.075L15.6984 13.861C16.8094 12.9469 18.0515 12.225 19.3875 11.7188L21.164 11.0484L22.0031 6.4922C23.3203 6.3422 24.6656 6.3422 25.9875 6.4922L26.8265 11.0391L28.6125 11.7094C29.9578 12.2156 31.2094 12.9375 32.3297 13.8563L33.8015 15.0656L38.1515 13.5234C38.9484 14.5969 39.614 15.7547 40.1484 16.9734L36.6469 19.9688L36.9515 21.8391C37.0687 22.5469 37.1297 23.2734 37.1297 24C37.1297 24.7266 37.0687 25.4531 36.9515 26.1609L36.6422 28.0406L40.1437 31.0359C39.6129 32.2589 38.9429 33.4165 38.1469 34.486L33.7969 32.9438L32.325 34.1531C31.2047 35.0719 29.9578 35.7938 28.6078 36.3L26.8219 36.9703L25.9828 41.5172Z" fill="white"/>
</svg>
