<svg width="40" height="40" viewBox="0 0 40 40" fill="none" xmlns="http://www.w3.org/2000/svg">
<path d="M36.125 24.457L33.5703 22.2734C33.6914 21.5313 33.7539 20.7734 33.7539 20.0195C33.7539 19.2656 33.6914 18.5039 33.5703 17.7656L36.125 15.582C36.318 15.4168 36.4561 15.1968 36.521 14.9512C36.5859 14.7056 36.5745 14.446 36.4883 14.207L36.4531 14.1055C35.75 12.1394 34.6966 10.317 33.3437 8.72656L33.2734 8.64453C33.1091 8.45138 32.8902 8.31253 32.6454 8.24628C32.4007 8.18003 32.1416 8.1895 31.9023 8.27344L28.7305 9.40234C27.5586 8.44141 26.2539 7.68359 24.8398 7.15625L24.2265 3.83984C24.1803 3.59001 24.0591 3.36017 23.8791 3.18085C23.6991 3.00154 23.4688 2.88124 23.2187 2.83594L23.1133 2.81641C21.082 2.44922 18.9414 2.44922 16.9101 2.81641L16.8047 2.83594C16.5547 2.88124 16.3243 3.00154 16.1443 3.18085C15.9643 3.36017 15.8431 3.59001 15.7969 3.83984L15.1797 7.17188C13.779 7.70342 12.4742 8.4594 11.3164 9.41016L8.12108 8.27344C7.88189 8.18884 7.62261 8.17903 7.3777 8.24531C7.1328 8.3116 6.91386 8.45084 6.74999 8.64453L6.67968 8.72656C5.32926 10.3187 4.27605 12.1407 3.5703 14.1055L3.53514 14.207C3.35936 14.6953 3.50389 15.2422 3.89843 15.582L6.48436 17.7891C6.36327 18.5234 6.30468 19.2734 6.30468 20.0156C6.30468 20.7656 6.36327 21.5156 6.48436 22.2422L3.90624 24.4492C3.71325 24.6144 3.57513 24.8345 3.51024 25.0801C3.44535 25.3257 3.45676 25.5852 3.54296 25.8242L3.57811 25.9258C4.28514 27.8906 5.32811 29.707 6.68749 31.3047L6.7578 31.3867C6.92207 31.5799 7.14102 31.7187 7.38578 31.785C7.63054 31.8512 7.88962 31.8417 8.12889 31.7578L11.3242 30.6211C12.4883 31.5781 13.7851 32.3359 15.1875 32.8594L15.8047 36.1914C15.8509 36.4412 15.9721 36.6711 16.1522 36.8504C16.3322 37.0297 16.5625 37.15 16.8125 37.1953L16.918 37.2148C18.9692 37.584 21.0699 37.584 23.1211 37.2148L23.2265 37.1953C23.4766 37.15 23.7069 37.0297 23.8869 36.8504C24.0669 36.6711 24.1881 36.4412 24.2344 36.1914L24.8476 32.875C26.2617 32.3438 27.5664 31.5898 28.7383 30.6289L31.9101 31.7578C32.1493 31.8424 32.4086 31.8522 32.6535 31.7859C32.8984 31.7197 33.1174 31.5804 33.2812 31.3867L33.3515 31.3047C34.7109 29.6992 35.7539 27.8906 36.4609 25.9258L36.4961 25.8242C36.664 25.3398 36.5195 24.7969 36.125 24.457ZM20.0195 26.4961C16.2265 26.4961 13.1523 23.4219 13.1523 19.6289C13.1523 15.8359 16.2265 12.7617 20.0195 12.7617C23.8125 12.7617 26.8867 15.8359 26.8867 19.6289C26.8867 23.4219 23.8125 26.4961 20.0195 26.4961Z" fill="white"/>
</svg>
