<svg width="25" height="24" viewBox="0 0 25 24" fill="none" xmlns="http://www.w3.org/2000/svg">
<path d="M12.5 1.25C12.9315 1.25 13.2812 1.58579 13.2812 2V3C13.2812 3.41421 12.9315 3.75 12.5 3.75C12.0685 3.75 11.7187 3.41421 11.7187 3V2C11.7187 1.58579 12.0685 1.25 12.5 1.25Z" fill="white"/>
<path d="M12.5 6.25C9.19204 6.25 6.51041 8.82436 6.51041 12C6.51041 15.1756 9.19204 17.75 12.5 17.75C15.8079 17.75 18.4896 15.1756 18.4896 12C18.4896 8.82436 15.8079 6.25 12.5 6.25Z" fill="white"/>
<path d="M5.68674 4.39862C5.38164 4.10573 4.88698 4.10573 4.58189 4.39862C4.27679 4.69152 4.27679 5.16639 4.58189 5.45929L5.31846 6.16639C5.62355 6.45929 6.11821 6.45929 6.42331 6.16639C6.72841 5.8735 6.72841 5.39862 6.42331 5.10573L5.68674 4.39862Z" fill="white"/>
<path d="M23.6979 12C23.6979 12.4142 23.3481 12.75 22.9167 12.75H21.875C21.4435 12.75 21.0937 12.4142 21.0937 12C21.0937 11.5858 21.4435 11.25 21.875 11.25H22.9167C23.3481 11.25 23.6979 11.5858 23.6979 12Z" fill="white"/>
<path d="M20.4181 5.45928C20.7232 5.16638 20.7232 4.69151 20.4181 4.39862C20.113 4.10572 19.6183 4.10572 19.3132 4.39862L18.5767 5.10572C18.2716 5.39862 18.2716 5.87349 18.5767 6.16638C18.8818 6.45928 19.3764 6.45928 19.6815 6.16638L20.4181 5.45928Z" fill="white"/>
<path d="M12.5 20.25C12.9315 20.25 13.2812 20.5858 13.2812 21V22C13.2812 22.4142 12.9315 22.75 12.5 22.75C12.0685 22.75 11.7187 22.4142 11.7187 22V21C11.7187 20.5858 12.0685 20.25 12.5 20.25Z" fill="white"/>
<path d="M19.6816 17.8336C19.3765 17.5407 18.8818 17.5407 18.5767 17.8336C18.2716 18.1265 18.2716 18.6014 18.5767 18.8943L19.3133 19.6014C19.6184 19.8943 20.1131 19.8943 20.4182 19.6014C20.7233 19.3085 20.7233 18.8336 20.4182 18.5407L19.6816 17.8336Z" fill="white"/>
<path d="M3.90624 12C3.90624 12.4142 3.55647 12.75 3.12499 12.75H2.08333C1.65186 12.75 1.30208 12.4142 1.30208 12C1.30208 11.5858 1.65186 11.25 2.08333 11.25H3.12499C3.55647 11.25 3.90624 11.5858 3.90624 12Z" fill="white"/>
<path d="M6.42324 18.8943C6.72834 18.6014 6.72834 18.1265 6.42324 17.8336C6.11814 17.5407 5.62348 17.5407 5.31839 17.8336L4.58182 18.5407C4.27672 18.8336 4.27672 19.3085 4.58182 19.6014C4.88691 19.8943 5.38157 19.8943 5.68667 19.6014L6.42324 18.8943Z" fill="white"/>
</svg>
