<svg width="512" height="512" viewBox="0 0 512 512" fill="none" xmlns="http://www.w3.org/2000/svg">
<g clip-path="url(#clip0_906_1432)">
<path opacity="0.987" fill-rule="evenodd" clip-rule="evenodd" d="M382.5 -0.5C392.5 -0.5 402.5 -0.5 412.5 -0.5C428.221 1.85215 442.887 7.18549 456.5 15.5C435.847 36.6529 415.014 57.6529 394 78.5C396.248 88.0298 399.415 97.3632 403.5 106.5C411.759 110.089 420.092 113.589 428.5 117C429.833 117.667 431.167 117.667 432.5 117C453.347 95.9861 474.347 75.1528 495.5 54.5C503.815 68.1126 509.148 82.7792 511.5 98.5C511.5 108.5 511.5 118.5 511.5 128.5C502 180.837 471.333 213.337 419.5 226C404.645 228.701 389.812 228.868 375 226.5C358.864 227.098 344.697 232.598 332.5 243C302.667 272.833 272.833 302.667 243 332.5C233.869 342.766 228.536 354.766 227 368.5C234.054 412.503 222.221 450.336 191.5 482C173.245 497.795 152.245 507.628 128.5 511.5C118.5 511.5 108.5 511.5 98.5 511.5C43.1667 500.833 10.1667 467.833 -0.5 412.5C-0.5 402.5 -0.5 392.5 -0.5 382.5C9.98428 327.183 42.9843 294.349 98.5 284C112.884 283.124 127.217 283.624 141.5 285.5C157.427 284.696 171.427 279.196 183.5 269C212 240.5 240.5 212 269 183.5C279.193 171.431 284.693 157.431 285.5 141.5C276.054 87.6039 293.721 45.4372 338.5 15C352.34 7.11092 367.007 1.94425 382.5 -0.5ZM105.5 353.5C132.938 351.797 150.104 364.13 157 390.5C158.825 416.999 146.991 433.832 121.5 441C94.4936 443.313 77.3269 431.48 70 405.5C67.8911 378.471 79.7244 361.138 105.5 353.5Z" fill="black"/>
</g>
<defs>
<clipPath id="clip0_906_1432">
<rect width="512" height="512" fill="white"/>
</clipPath>
</defs>
</svg>
