<svg width="16" height="16" viewBox="0 0 16 16" fill="none" xmlns="http://www.w3.org/2000/svg">
<path d="M2.3335 13.3334C2.06683 13.3334 1.8335 13.2334 1.6335 13.0334C1.4335 12.8334 1.3335 12.6001 1.3335 12.3334V3.66675C1.3335 3.40008 1.4335 3.16675 1.6335 2.96675C1.8335 2.76675 2.06683 2.66675 2.3335 2.66675H11.0002C11.2668 2.66675 11.5002 2.76675 11.7002 2.96675C11.9002 3.16675 12.0002 3.40008 12.0002 3.66675V7.25008L14.6668 4.58341V11.4167L12.0002 8.75008V12.3334C12.0002 12.6001 11.9002 12.8334 11.7002 13.0334C11.5002 13.2334 11.2668 13.3334 11.0002 13.3334H2.3335Z" fill="black"/>
</svg>
