<svg width="16" height="16" viewBox="0 0 16 16" fill="none" xmlns="http://www.w3.org/2000/svg">
<path d="M14.6666 11.4167L11.9999 8.75003V10.6L4.06657 2.6667H10.9999C11.2666 2.6667 11.4999 2.7667 11.6999 2.9667C11.8999 3.1667 11.9999 3.40003 11.9999 3.6667V7.25003L14.6666 4.58337V11.4167ZM14.1332 15.55L0.649902 2.0667L1.3499 1.3667L14.8332 14.85L14.1332 15.55ZM2.6499 2.6667L11.9999 12.0167V12.3334C11.9999 12.6 11.8999 12.8334 11.6999 13.0334C11.4999 13.2334 11.2666 13.3334 10.9999 13.3334H2.33324C2.06657 13.3334 1.83324 13.2334 1.63324 13.0334C1.43324 12.8334 1.33324 12.6 1.33324 12.3334V3.6667C1.33324 3.40003 1.43324 3.1667 1.63324 2.9667C1.83324 2.7667 2.06657 2.6667 2.33324 2.6667H2.6499Z" fill="black"/>
</svg>
