<svg width="16" height="16" viewBox="0 0 16 16" fill="none" xmlns="http://www.w3.org/2000/svg">
<path d="M9.33333 13.8166V12.7832C10.4111 12.4721 11.2917 11.8749 11.975 10.9916C12.6583 10.1082 13 9.10546 13 7.98324C13 6.86101 12.6611 5.85546 11.9833 4.96657C11.3056 4.07768 10.4222 3.48324 9.33333 3.18324V2.1499C10.7111 2.46101 11.8333 3.15824 12.7 4.24157C13.5667 5.3249 14 6.57212 14 7.98324C14 9.39435 13.5667 10.6416 12.7 11.7249C11.8333 12.8082 10.7111 13.5055 9.33333 13.8166ZM2 9.9999V5.9999H4.66667L8 2.66657V13.3332L4.66667 9.9999H2ZM9 10.7999V5.18324C9.61111 5.37212 10.0972 5.72768 10.4583 6.2499C10.8194 6.77212 11 7.35546 11 7.9999C11 8.63324 10.8167 9.21101 10.45 9.73324C10.0833 10.2555 9.6 10.611 9 10.7999Z" fill="black"/>
</svg>
