<svg width="16" height="16" viewBox="0 0 16 16" fill="none" xmlns="http://www.w3.org/2000/svg">
<path d="M13.5502 15.0667L11.3502 12.8667C11.0391 13.0889 10.703 13.2806 10.3419 13.4417C9.98078 13.6028 9.60578 13.7278 9.2169 13.8167V12.7834C9.47245 12.7056 9.71967 12.6195 9.95856 12.525C10.1975 12.4306 10.4225 12.3056 10.6336 12.15L7.88356 9.38337V13.3334L4.55023 10H1.88356V6.00003H4.48356L0.816895 2.33337L1.53356 1.6167L14.2669 14.3334L13.5502 15.0667ZM12.9502 11.2L12.2336 10.4834C12.4558 10.1056 12.6197 9.70559 12.7252 9.28337C12.8308 8.86114 12.8836 8.42781 12.8836 7.98337C12.8836 6.83892 12.5502 5.81392 11.8836 4.90837C11.2169 4.00281 10.328 3.42781 9.2169 3.18337V2.15003C10.5947 2.46114 11.7169 3.15837 12.5836 4.2417C13.4502 5.32503 13.8836 6.57226 13.8836 7.98337C13.8836 8.55003 13.8058 9.10559 13.6502 9.65003C13.4947 10.1945 13.2613 10.7111 12.9502 11.2ZM10.7169 8.9667L9.2169 7.4667V5.30003C9.73912 5.54448 10.1475 5.91114 10.4419 6.40003C10.7363 6.88892 10.8836 7.42226 10.8836 8.00003C10.8836 8.1667 10.8697 8.33059 10.8419 8.4917C10.8141 8.65281 10.7725 8.81114 10.7169 8.9667ZM7.88356 6.13337L6.15023 4.40003L7.88356 2.6667V6.13337Z" fill="black"/>
</svg>
