<svg width="271" height="300" viewBox="0 0 271 300" fill="none" xmlns="http://www.w3.org/2000/svg">
<rect y="13" width="271" height="275" fill="white"/>
<path d="M96.676 259H19.3322V40.8182H97.3152C119.261 40.8182 138.153 45.1861 153.991 53.9219C169.829 62.5866 182.01 75.0511 190.533 91.3153C199.126 107.58 203.423 127.04 203.423 149.696C203.423 172.423 199.126 191.955 190.533 208.29C182.01 224.625 169.758 237.161 153.778 245.896C137.869 254.632 118.835 259 96.676 259ZM65.4615 219.476H94.7583C108.395 219.476 119.865 217.061 129.169 212.232C138.544 207.331 145.575 199.767 150.263 189.54C155.021 179.241 157.4 165.96 157.4 149.696C157.4 133.574 155.021 120.399 150.263 110.172C145.575 99.9446 138.579 92.4162 129.275 87.5866C119.971 82.7571 108.501 80.3423 94.8649 80.3423H65.4615V219.476Z" fill="black"/>
<path d="M130.082 166H123.491L133.533 136.909H141.46L151.488 166H144.897L137.61 143.557H137.383L130.082 166ZM129.67 154.565H145.238V159.366H129.67V154.565Z" fill="black"/>
<path d="M191.654 137.909V167H186.341L173.685 148.69H173.472V167H167.321V137.909H172.719L185.276 156.205H185.532V137.909H191.654Z" fill="white"/>
<path d="M211.806 168V138.909H223.453C225.594 138.909 227.379 139.226 228.809 139.861C230.239 140.495 231.313 141.376 232.033 142.503C232.753 143.62 233.113 144.908 233.113 146.366C233.113 147.503 232.885 148.502 232.431 149.364C231.976 150.216 231.351 150.917 230.556 151.466C229.77 152.006 228.87 152.389 227.857 152.616V152.901C228.965 152.948 230.002 153.26 230.968 153.838C231.943 154.416 232.734 155.225 233.34 156.267C233.946 157.299 234.249 158.53 234.249 159.96C234.249 161.504 233.865 162.882 233.098 164.094C232.341 165.296 231.219 166.248 229.732 166.949C228.245 167.65 226.413 168 224.235 168H211.806ZM217.956 162.972H222.971C224.685 162.972 225.935 162.645 226.721 161.991C227.507 161.329 227.9 160.448 227.9 159.349C227.9 158.545 227.705 157.834 227.317 157.219C226.929 156.603 226.375 156.12 225.655 155.77C224.945 155.42 224.097 155.244 223.113 155.244H217.956V162.972ZM217.956 151.082H222.516C223.359 151.082 224.107 150.936 224.76 150.642C225.423 150.339 225.944 149.913 226.323 149.364C226.711 148.814 226.905 148.156 226.905 147.389C226.905 146.338 226.531 145.491 225.783 144.847C225.044 144.203 223.993 143.881 222.63 143.881H217.956V151.082Z" fill="black"/>
<path d="M254.574 137.909V167H248.423V137.909H254.574Z" fill="black"/>
</svg>
